<mxfile host="app.diagrams.net" modified="2024-08-01T16:39:35.405Z" agent="Mozilla/5.0 (Macintosh; Intel Mac OS X 10_15_7) AppleWebKit/605.1.15 (KHTML, like Gecko) Version/17.5 Safari/605.1.15" etag="6zzoLC4IPfxzbfi8NceF" version="24.6.5" type="device">
  <diagram name="Page-1" id="cdKSQLUfSP2BoU2OHJU8">
    <mxGraphModel dx="4936" dy="919" grid="1" gridSize="10" guides="1" tooltips="1" connect="1" arrows="1" fold="1" page="1" pageScale="1" pageWidth="1100" pageHeight="850" math="0" shadow="0">
      <root>
        <mxCell id="0" />
        <mxCell id="1" parent="0" />
        <mxCell id="9tpbVCxZHUeH7UBsNVS_-1" value="user" style="whiteSpace=wrap;html=1;align=center;labelBackgroundColor=none;" parent="1" vertex="1">
          <mxGeometry x="-1020" y="1089" width="100" height="40" as="geometry" />
        </mxCell>
        <mxCell id="9tpbVCxZHUeH7UBsNVS_-6" value="person" style="whiteSpace=wrap;html=1;align=center;labelBackgroundColor=none;" parent="1" vertex="1">
          <mxGeometry y="800" width="100" height="40" as="geometry" />
        </mxCell>
        <mxCell id="9tpbVCxZHUeH7UBsNVS_-9" value="user id" style="ellipse;whiteSpace=wrap;html=1;align=center;fontStyle=4;labelBackgroundColor=none;" parent="1" vertex="1">
          <mxGeometry x="-970" y="1190" width="100" height="40" as="geometry" />
        </mxCell>
        <mxCell id="9tpbVCxZHUeH7UBsNVS_-15" value="award" style="whiteSpace=wrap;html=1;align=center;labelBackgroundColor=none;" parent="1" vertex="1">
          <mxGeometry x="30" y="425" width="100" height="40" as="geometry" />
        </mxCell>
        <mxCell id="9tpbVCxZHUeH7UBsNVS_-16" value="award id" style="ellipse;whiteSpace=wrap;html=1;align=center;fontStyle=4;labelBackgroundColor=none;" parent="1" vertex="1">
          <mxGeometry x="70" y="330" width="100" height="40" as="geometry" />
        </mxCell>
        <mxCell id="9tpbVCxZHUeH7UBsNVS_-18" value="person id" style="ellipse;whiteSpace=wrap;html=1;align=center;fontStyle=4;labelBackgroundColor=none;" parent="1" vertex="1">
          <mxGeometry x="330" y="790" width="100" height="40" as="geometry" />
        </mxCell>
        <mxCell id="9tpbVCxZHUeH7UBsNVS_-21" value="user_name" style="ellipse;whiteSpace=wrap;html=1;align=center;labelBackgroundColor=none;" parent="1" vertex="1">
          <mxGeometry x="-1220" y="1100" width="100" height="40" as="geometry" />
        </mxCell>
        <mxCell id="9tpbVCxZHUeH7UBsNVS_-22" value="password" style="ellipse;whiteSpace=wrap;html=1;align=center;labelBackgroundColor=none;" parent="1" vertex="1">
          <mxGeometry x="-1190" y="1200" width="100" height="40" as="geometry" />
        </mxCell>
        <mxCell id="9tpbVCxZHUeH7UBsNVS_-23" value="email" style="ellipse;whiteSpace=wrap;html=1;align=center;labelBackgroundColor=none;" parent="1" vertex="1">
          <mxGeometry x="-1070" y="1220" width="100" height="40" as="geometry" />
        </mxCell>
        <mxCell id="9tpbVCxZHUeH7UBsNVS_-30" value="first name" style="ellipse;whiteSpace=wrap;html=1;align=center;labelBackgroundColor=none;" parent="1" vertex="1">
          <mxGeometry x="110" y="920" width="100" height="40" as="geometry" />
        </mxCell>
        <mxCell id="9tpbVCxZHUeH7UBsNVS_-31" value="last name" style="ellipse;whiteSpace=wrap;html=1;align=center;labelBackgroundColor=none;" parent="1" vertex="1">
          <mxGeometry x="210" y="860" width="100" height="40" as="geometry" />
        </mxCell>
        <mxCell id="9tpbVCxZHUeH7UBsNVS_-33" value="dob" style="ellipse;whiteSpace=wrap;html=1;align=center;labelBackgroundColor=none;" parent="1" vertex="1">
          <mxGeometry x="260" y="720" width="100" height="40" as="geometry" />
        </mxCell>
        <mxCell id="9tpbVCxZHUeH7UBsNVS_-34" value="interaction date" style="ellipse;whiteSpace=wrap;html=1;align=center;labelBackgroundColor=none;" parent="1" vertex="1">
          <mxGeometry x="-330" y="970" width="100" height="40" as="geometry" />
        </mxCell>
        <mxCell id="9tpbVCxZHUeH7UBsNVS_-35" value="award ype" style="ellipse;whiteSpace=wrap;html=1;align=center;labelBackgroundColor=none;" parent="1" vertex="1">
          <mxGeometry x="10" y="510" width="100" height="40" as="geometry" />
        </mxCell>
        <mxCell id="9tpbVCxZHUeH7UBsNVS_-50" value="" style="endArrow=none;html=1;rounded=0;entryX=0.99;entryY=0.675;entryDx=0;entryDy=0;entryPerimeter=0;exitX=0.5;exitY=1;exitDx=0;exitDy=0;labelBackgroundColor=none;fontColor=default;" parent="1" source="9tpbVCxZHUeH7UBsNVS_-15" target="9tpbVCxZHUeH7UBsNVS_-35" edge="1">
          <mxGeometry relative="1" as="geometry">
            <mxPoint x="100" y="120" as="sourcePoint" />
            <mxPoint x="260" y="120" as="targetPoint" />
          </mxGeometry>
        </mxCell>
        <mxCell id="9tpbVCxZHUeH7UBsNVS_-51" value="" style="endArrow=none;html=1;rounded=0;entryX=0;entryY=1;entryDx=0;entryDy=0;labelBackgroundColor=none;fontColor=default;" parent="1" source="9tpbVCxZHUeH7UBsNVS_-15" target="9tpbVCxZHUeH7UBsNVS_-16" edge="1">
          <mxGeometry relative="1" as="geometry">
            <mxPoint x="110" y="130" as="sourcePoint" />
            <mxPoint x="270" y="130" as="targetPoint" />
          </mxGeometry>
        </mxCell>
        <mxCell id="9tpbVCxZHUeH7UBsNVS_-52" value="" style="endArrow=none;html=1;rounded=0;exitX=0.4;exitY=0.025;exitDx=0;exitDy=0;exitPerimeter=0;entryX=1;entryY=1;entryDx=0;entryDy=0;labelBackgroundColor=none;fontColor=default;" parent="1" source="9tpbVCxZHUeH7UBsNVS_-203" target="9tpbVCxZHUeH7UBsNVS_-139" edge="1">
          <mxGeometry relative="1" as="geometry">
            <mxPoint x="-370" y="1052.0000000000005" as="sourcePoint" />
            <mxPoint x="-650" y="760" as="targetPoint" />
          </mxGeometry>
        </mxCell>
        <mxCell id="9tpbVCxZHUeH7UBsNVS_-53" value="" style="endArrow=none;html=1;rounded=0;entryX=1;entryY=0.25;entryDx=0;entryDy=0;labelBackgroundColor=none;fontColor=default;" parent="1" source="9tpbVCxZHUeH7UBsNVS_-34" target="9tpbVCxZHUeH7UBsNVS_-139" edge="1">
          <mxGeometry relative="1" as="geometry">
            <mxPoint x="130" y="150" as="sourcePoint" />
            <mxPoint x="-360" y="960" as="targetPoint" />
          </mxGeometry>
        </mxCell>
        <mxCell id="9tpbVCxZHUeH7UBsNVS_-54" value="" style="endArrow=none;html=1;rounded=0;entryX=0.38;entryY=0.012;entryDx=0;entryDy=0;entryPerimeter=0;exitX=0.75;exitY=1;exitDx=0;exitDy=0;labelBackgroundColor=none;fontColor=default;" parent="1" source="9tpbVCxZHUeH7UBsNVS_-1" target="9tpbVCxZHUeH7UBsNVS_-9" edge="1">
          <mxGeometry relative="1" as="geometry">
            <mxPoint x="-330" y="750" as="sourcePoint" />
            <mxPoint x="-170" y="750" as="targetPoint" />
          </mxGeometry>
        </mxCell>
        <mxCell id="9tpbVCxZHUeH7UBsNVS_-55" value="" style="endArrow=none;html=1;rounded=0;exitX=0.5;exitY=1;exitDx=0;exitDy=0;labelBackgroundColor=none;fontColor=default;" parent="1" source="9tpbVCxZHUeH7UBsNVS_-1" target="9tpbVCxZHUeH7UBsNVS_-23" edge="1">
          <mxGeometry relative="1" as="geometry">
            <mxPoint x="-320" y="760" as="sourcePoint" />
            <mxPoint x="-160" y="760" as="targetPoint" />
          </mxGeometry>
        </mxCell>
        <mxCell id="9tpbVCxZHUeH7UBsNVS_-56" value="" style="endArrow=none;html=1;rounded=0;entryX=1;entryY=0.5;entryDx=0;entryDy=0;exitX=0;exitY=0.5;exitDx=0;exitDy=0;labelBackgroundColor=none;fontColor=default;" parent="1" source="9tpbVCxZHUeH7UBsNVS_-1" target="9tpbVCxZHUeH7UBsNVS_-22" edge="1">
          <mxGeometry relative="1" as="geometry">
            <mxPoint x="-310" y="770" as="sourcePoint" />
            <mxPoint x="-150" y="770" as="targetPoint" />
          </mxGeometry>
        </mxCell>
        <mxCell id="9tpbVCxZHUeH7UBsNVS_-57" value="" style="endArrow=none;html=1;rounded=0;exitX=0.75;exitY=0;exitDx=0;exitDy=0;labelBackgroundColor=none;fontColor=default;" parent="1" source="9tpbVCxZHUeH7UBsNVS_-177" target="9tpbVCxZHUeH7UBsNVS_-200" edge="1">
          <mxGeometry relative="1" as="geometry">
            <mxPoint x="-1270" y="830" as="sourcePoint" />
            <mxPoint x="-1258.8188773719494" y="737.5419253568389" as="targetPoint" />
          </mxGeometry>
        </mxCell>
        <mxCell id="9tpbVCxZHUeH7UBsNVS_-58" value="" style="endArrow=none;html=1;rounded=0;entryX=0;entryY=0;entryDx=0;entryDy=0;labelBackgroundColor=none;fontColor=default;" parent="1" source="9tpbVCxZHUeH7UBsNVS_-21" target="9tpbVCxZHUeH7UBsNVS_-1" edge="1">
          <mxGeometry relative="1" as="geometry">
            <mxPoint x="-280" y="800" as="sourcePoint" />
            <mxPoint x="-120" y="800" as="targetPoint" />
          </mxGeometry>
        </mxCell>
        <mxCell id="9tpbVCxZHUeH7UBsNVS_-63" value="" style="endArrow=none;html=1;rounded=0;exitX=0.58;exitY=0.025;exitDx=0;exitDy=0;exitPerimeter=0;labelBackgroundColor=none;fontColor=default;" parent="1" source="9tpbVCxZHUeH7UBsNVS_-30" target="9tpbVCxZHUeH7UBsNVS_-6" edge="1">
          <mxGeometry relative="1" as="geometry">
            <mxPoint x="1010" y="600" as="sourcePoint" />
            <mxPoint x="1170" y="600" as="targetPoint" />
          </mxGeometry>
        </mxCell>
        <mxCell id="9tpbVCxZHUeH7UBsNVS_-64" value="" style="endArrow=none;html=1;rounded=0;exitX=0.75;exitY=1;exitDx=0;exitDy=0;labelBackgroundColor=none;fontColor=default;" parent="1" source="9tpbVCxZHUeH7UBsNVS_-6" target="9tpbVCxZHUeH7UBsNVS_-31" edge="1">
          <mxGeometry relative="1" as="geometry">
            <mxPoint x="1020" y="610" as="sourcePoint" />
            <mxPoint x="1180" y="610" as="targetPoint" />
          </mxGeometry>
        </mxCell>
        <mxCell id="9tpbVCxZHUeH7UBsNVS_-65" value="" style="endArrow=none;html=1;rounded=0;exitX=1;exitY=0.5;exitDx=0;exitDy=0;entryX=0;entryY=0;entryDx=0;entryDy=0;labelBackgroundColor=none;fontColor=default;" parent="1" source="9tpbVCxZHUeH7UBsNVS_-6" target="9tpbVCxZHUeH7UBsNVS_-18" edge="1">
          <mxGeometry relative="1" as="geometry">
            <mxPoint x="1030" y="620" as="sourcePoint" />
            <mxPoint x="1190" y="620" as="targetPoint" />
          </mxGeometry>
        </mxCell>
        <mxCell id="9tpbVCxZHUeH7UBsNVS_-66" value="" style="endArrow=none;html=1;rounded=0;exitX=0;exitY=1;exitDx=0;exitDy=0;entryX=0.94;entryY=0.025;entryDx=0;entryDy=0;entryPerimeter=0;labelBackgroundColor=none;fontColor=default;" parent="1" source="9tpbVCxZHUeH7UBsNVS_-33" target="9tpbVCxZHUeH7UBsNVS_-6" edge="1">
          <mxGeometry relative="1" as="geometry">
            <mxPoint x="1040" y="630" as="sourcePoint" />
            <mxPoint x="1200" y="630" as="targetPoint" />
          </mxGeometry>
        </mxCell>
        <mxCell id="9tpbVCxZHUeH7UBsNVS_-81" value="awarded" style="shape=rhombus;perimeter=rhombusPerimeter;whiteSpace=wrap;html=1;align=center;labelBackgroundColor=none;" parent="1" vertex="1">
          <mxGeometry x="-310" y="410" width="120" height="60" as="geometry" />
        </mxCell>
        <mxCell id="9tpbVCxZHUeH7UBsNVS_-95" value="" style="endArrow=none;html=1;rounded=0;exitX=1;exitY=0.5;exitDx=0;exitDy=0;entryX=0;entryY=0;entryDx=0;entryDy=0;labelBackgroundColor=none;fontColor=default;" parent="1" source="9tpbVCxZHUeH7UBsNVS_-81" target="9tpbVCxZHUeH7UBsNVS_-15" edge="1">
          <mxGeometry relative="1" as="geometry">
            <mxPoint x="370" y="90" as="sourcePoint" />
            <mxPoint x="530" y="90" as="targetPoint" />
            <Array as="points" />
          </mxGeometry>
        </mxCell>
        <mxCell id="9tpbVCxZHUeH7UBsNVS_-96" value="N" style="resizable=0;html=1;whiteSpace=wrap;align=right;verticalAlign=bottom;labelBackgroundColor=none;" parent="9tpbVCxZHUeH7UBsNVS_-95" connectable="0" vertex="1">
          <mxGeometry x="1" relative="1" as="geometry" />
        </mxCell>
        <mxCell id="9tpbVCxZHUeH7UBsNVS_-103" value="content" style="whiteSpace=wrap;html=1;align=center;labelBackgroundColor=none;" parent="1" vertex="1">
          <mxGeometry x="-710" y="460" width="100" height="40" as="geometry" />
        </mxCell>
        <mxCell id="9tpbVCxZHUeH7UBsNVS_-104" value="content id" style="ellipse;whiteSpace=wrap;html=1;align=center;fontStyle=4;labelBackgroundColor=none;" parent="1" vertex="1">
          <mxGeometry x="-900" y="305" width="100" height="40" as="geometry" />
        </mxCell>
        <mxCell id="9tpbVCxZHUeH7UBsNVS_-105" value="description&amp;nbsp;" style="ellipse;whiteSpace=wrap;html=1;align=center;labelBackgroundColor=none;" parent="1" vertex="1">
          <mxGeometry x="-650" y="230" width="100" height="40" as="geometry" />
        </mxCell>
        <mxCell id="9tpbVCxZHUeH7UBsNVS_-106" value="release date&amp;nbsp;" style="ellipse;whiteSpace=wrap;html=1;align=center;labelBackgroundColor=none;" parent="1" vertex="1">
          <mxGeometry x="-540" y="405" width="100" height="40" as="geometry" />
        </mxCell>
        <mxCell id="9tpbVCxZHUeH7UBsNVS_-107" value="" style="endArrow=none;html=1;rounded=0;exitX=0.5;exitY=1;exitDx=0;exitDy=0;entryX=0.75;entryY=0;entryDx=0;entryDy=0;labelBackgroundColor=none;fontColor=default;" parent="1" source="9tpbVCxZHUeH7UBsNVS_-105" target="9tpbVCxZHUeH7UBsNVS_-103" edge="1">
          <mxGeometry relative="1" as="geometry">
            <mxPoint x="-860" y="-70" as="sourcePoint" />
            <mxPoint x="-700" y="-70" as="targetPoint" />
          </mxGeometry>
        </mxCell>
        <mxCell id="9tpbVCxZHUeH7UBsNVS_-108" value="" style="endArrow=none;html=1;rounded=0;exitX=0.5;exitY=1;exitDx=0;exitDy=0;entryX=0.174;entryY=0.026;entryDx=0;entryDy=0;entryPerimeter=0;labelBackgroundColor=none;fontColor=default;" parent="1" source="9tpbVCxZHUeH7UBsNVS_-104" target="9tpbVCxZHUeH7UBsNVS_-103" edge="1">
          <mxGeometry relative="1" as="geometry">
            <mxPoint x="-850" y="-60" as="sourcePoint" />
            <mxPoint x="-690" y="-60" as="targetPoint" />
          </mxGeometry>
        </mxCell>
        <mxCell id="9tpbVCxZHUeH7UBsNVS_-109" value="" style="endArrow=none;html=1;rounded=0;labelBackgroundColor=none;fontColor=default;" parent="1" source="zvyWYd292zEWhK0BPqlY-1" target="9tpbVCxZHUeH7UBsNVS_-103" edge="1">
          <mxGeometry relative="1" as="geometry">
            <mxPoint x="-680.4904059661089" y="-330.12094391581195" as="sourcePoint" />
            <mxPoint x="-680" y="-50" as="targetPoint" />
          </mxGeometry>
        </mxCell>
        <mxCell id="9tpbVCxZHUeH7UBsNVS_-110" value="" style="endArrow=none;html=1;rounded=0;exitX=0;exitY=1;exitDx=0;exitDy=0;entryX=1;entryY=0;entryDx=0;entryDy=0;labelBackgroundColor=none;fontColor=default;" parent="1" source="9tpbVCxZHUeH7UBsNVS_-106" target="9tpbVCxZHUeH7UBsNVS_-103" edge="1">
          <mxGeometry relative="1" as="geometry">
            <mxPoint x="-830" y="-40" as="sourcePoint" />
            <mxPoint x="-670" y="-40" as="targetPoint" />
          </mxGeometry>
        </mxCell>
        <mxCell id="9tpbVCxZHUeH7UBsNVS_-111" value="interact" style="shape=rhombus;perimeter=rhombusPerimeter;whiteSpace=wrap;html=1;align=center;labelBackgroundColor=none;" parent="1" vertex="1">
          <mxGeometry x="-735" y="960" width="120" height="60" as="geometry" />
        </mxCell>
        <mxCell id="9tpbVCxZHUeH7UBsNVS_-128" value="involve&amp;nbsp;" style="shape=rhombus;perimeter=rhombusPerimeter;whiteSpace=wrap;html=1;align=center;labelBackgroundColor=none;" parent="1" vertex="1">
          <mxGeometry x="-470" y="565" width="120" height="60" as="geometry" />
        </mxCell>
        <mxCell id="9tpbVCxZHUeH7UBsNVS_-131" value="" style="shape=link;html=1;rounded=0;exitX=0;exitY=0.5;exitDx=0;exitDy=0;entryX=0.75;entryY=1;entryDx=0;entryDy=0;noJump=0;labelBackgroundColor=none;fontColor=default;" parent="1" source="9tpbVCxZHUeH7UBsNVS_-128" target="9tpbVCxZHUeH7UBsNVS_-103" edge="1">
          <mxGeometry relative="1" as="geometry">
            <mxPoint x="-280" y="510" as="sourcePoint" />
            <mxPoint x="-120" y="510" as="targetPoint" />
            <Array as="points">
              <mxPoint x="-620" y="570" />
            </Array>
          </mxGeometry>
        </mxCell>
        <mxCell id="9tpbVCxZHUeH7UBsNVS_-132" value="N" style="resizable=0;html=1;whiteSpace=wrap;align=right;verticalAlign=bottom;labelBackgroundColor=none;" parent="9tpbVCxZHUeH7UBsNVS_-131" connectable="0" vertex="1">
          <mxGeometry x="1" relative="1" as="geometry" />
        </mxCell>
        <mxCell id="9tpbVCxZHUeH7UBsNVS_-135" value="" style="endArrow=none;html=1;rounded=0;exitX=1;exitY=0.5;exitDx=0;exitDy=0;entryX=0;entryY=0.5;entryDx=0;entryDy=0;labelBackgroundColor=none;fontColor=default;" parent="1" source="9tpbVCxZHUeH7UBsNVS_-128" target="9tpbVCxZHUeH7UBsNVS_-6" edge="1">
          <mxGeometry relative="1" as="geometry">
            <mxPoint x="-80" y="640" as="sourcePoint" />
            <mxPoint x="80" y="640" as="targetPoint" />
            <Array as="points">
              <mxPoint x="-200" y="595" />
              <mxPoint x="-190" y="810" />
            </Array>
          </mxGeometry>
        </mxCell>
        <mxCell id="9tpbVCxZHUeH7UBsNVS_-136" value="N" style="resizable=0;html=1;whiteSpace=wrap;align=right;verticalAlign=bottom;labelBackgroundColor=none;" parent="9tpbVCxZHUeH7UBsNVS_-135" connectable="0" vertex="1">
          <mxGeometry x="1" relative="1" as="geometry" />
        </mxCell>
        <mxCell id="9tpbVCxZHUeH7UBsNVS_-137" value="title" style="ellipse;whiteSpace=wrap;html=1;align=center;labelBackgroundColor=none;" parent="1" vertex="1">
          <mxGeometry x="-820" y="240" width="100" height="40" as="geometry" />
        </mxCell>
        <mxCell id="9tpbVCxZHUeH7UBsNVS_-138" value="" style="endArrow=none;html=1;rounded=0;exitX=0.5;exitY=1;exitDx=0;exitDy=0;labelBackgroundColor=none;fontColor=default;" parent="1" source="9tpbVCxZHUeH7UBsNVS_-137" target="9tpbVCxZHUeH7UBsNVS_-103" edge="1">
          <mxGeometry relative="1" as="geometry">
            <mxPoint x="-810" y="-300" as="sourcePoint" />
            <mxPoint x="-650" y="-300" as="targetPoint" />
          </mxGeometry>
        </mxCell>
        <mxCell id="9tpbVCxZHUeH7UBsNVS_-139" value="userinteraction" style="rounded=1;arcSize=10;whiteSpace=wrap;html=1;align=center;labelBackgroundColor=none;" parent="1" vertex="1">
          <mxGeometry x="-500" y="980" width="100" height="40" as="geometry" />
        </mxCell>
        <mxCell id="9tpbVCxZHUeH7UBsNVS_-140" value="" style="endArrow=none;html=1;rounded=0;exitX=0;exitY=0.5;exitDx=0;exitDy=0;labelBackgroundColor=none;fontColor=default;" parent="1" source="9tpbVCxZHUeH7UBsNVS_-111" edge="1">
          <mxGeometry relative="1" as="geometry">
            <mxPoint x="-910" y="1010" as="sourcePoint" />
            <mxPoint x="-920" y="1110" as="targetPoint" />
            <Array as="points">
              <mxPoint x="-840" y="1110" />
            </Array>
          </mxGeometry>
        </mxCell>
        <mxCell id="9tpbVCxZHUeH7UBsNVS_-141" value="1" style="resizable=0;html=1;whiteSpace=wrap;align=right;verticalAlign=bottom;labelBackgroundColor=none;" parent="9tpbVCxZHUeH7UBsNVS_-140" connectable="0" vertex="1">
          <mxGeometry x="1" relative="1" as="geometry" />
        </mxCell>
        <mxCell id="9tpbVCxZHUeH7UBsNVS_-142" value="" style="shape=link;html=1;rounded=0;exitX=1;exitY=0.5;exitDx=0;exitDy=0;entryX=0;entryY=0.25;entryDx=0;entryDy=0;labelBackgroundColor=none;fontColor=default;" parent="1" source="9tpbVCxZHUeH7UBsNVS_-111" target="9tpbVCxZHUeH7UBsNVS_-139" edge="1">
          <mxGeometry relative="1" as="geometry">
            <mxPoint x="-690" y="900" as="sourcePoint" />
            <mxPoint x="-530" y="900" as="targetPoint" />
          </mxGeometry>
        </mxCell>
        <mxCell id="9tpbVCxZHUeH7UBsNVS_-143" value="N" style="resizable=0;html=1;whiteSpace=wrap;align=right;verticalAlign=bottom;labelBackgroundColor=none;" parent="9tpbVCxZHUeH7UBsNVS_-142" connectable="0" vertex="1">
          <mxGeometry x="1" relative="1" as="geometry" />
        </mxCell>
        <mxCell id="9tpbVCxZHUeH7UBsNVS_-144" value="" style="endArrow=none;html=1;rounded=0;entryX=0.25;entryY=1;entryDx=0;entryDy=0;exitX=0.5;exitY=0;exitDx=0;exitDy=0;labelBackgroundColor=none;fontColor=default;" parent="1" source="9tpbVCxZHUeH7UBsNVS_-146" target="9tpbVCxZHUeH7UBsNVS_-103" edge="1">
          <mxGeometry relative="1" as="geometry">
            <mxPoint x="-660" y="630" as="sourcePoint" />
            <mxPoint x="-460" y="620" as="targetPoint" />
            <Array as="points">
              <mxPoint x="-680" y="550" />
            </Array>
          </mxGeometry>
        </mxCell>
        <mxCell id="9tpbVCxZHUeH7UBsNVS_-145" value="1" style="resizable=0;html=1;whiteSpace=wrap;align=right;verticalAlign=bottom;labelBackgroundColor=none;" parent="9tpbVCxZHUeH7UBsNVS_-144" connectable="0" vertex="1">
          <mxGeometry x="1" relative="1" as="geometry" />
        </mxCell>
        <mxCell id="9tpbVCxZHUeH7UBsNVS_-146" value="interact" style="shape=rhombus;perimeter=rhombusPerimeter;whiteSpace=wrap;html=1;align=center;labelBackgroundColor=none;" parent="1" vertex="1">
          <mxGeometry x="-680" y="670" width="120" height="60" as="geometry" />
        </mxCell>
        <mxCell id="9tpbVCxZHUeH7UBsNVS_-147" value="" style="shape=link;html=1;rounded=0;exitX=0.5;exitY=1;exitDx=0;exitDy=0;entryX=0.5;entryY=0;entryDx=0;entryDy=0;labelBackgroundColor=none;fontColor=default;" parent="1" source="9tpbVCxZHUeH7UBsNVS_-146" target="9tpbVCxZHUeH7UBsNVS_-139" edge="1">
          <mxGeometry relative="1" as="geometry">
            <mxPoint x="-650" y="800" as="sourcePoint" />
            <mxPoint x="-490" y="800" as="targetPoint" />
            <Array as="points">
              <mxPoint x="-580" y="820" />
              <mxPoint x="-450" y="850" />
            </Array>
          </mxGeometry>
        </mxCell>
        <mxCell id="9tpbVCxZHUeH7UBsNVS_-148" value="N" style="resizable=0;html=1;whiteSpace=wrap;align=right;verticalAlign=bottom;labelBackgroundColor=none;" parent="9tpbVCxZHUeH7UBsNVS_-147" connectable="0" vertex="1">
          <mxGeometry x="1" relative="1" as="geometry" />
        </mxCell>
        <mxCell id="9tpbVCxZHUeH7UBsNVS_-150" value="userinteaction id" style="ellipse;whiteSpace=wrap;html=1;align=center;fontStyle=4;labelBackgroundColor=none;" parent="1" vertex="1">
          <mxGeometry x="-560" y="1080" width="100" height="40" as="geometry" />
        </mxCell>
        <mxCell id="9tpbVCxZHUeH7UBsNVS_-151" value="" style="endArrow=none;html=1;rounded=0;exitX=0.25;exitY=1;exitDx=0;exitDy=0;labelBackgroundColor=none;fontColor=default;" parent="1" source="9tpbVCxZHUeH7UBsNVS_-139" target="9tpbVCxZHUeH7UBsNVS_-150" edge="1">
          <mxGeometry relative="1" as="geometry">
            <mxPoint x="-600" y="1050" as="sourcePoint" />
            <mxPoint x="-440" y="1050" as="targetPoint" />
          </mxGeometry>
        </mxCell>
        <mxCell id="9tpbVCxZHUeH7UBsNVS_-156" value="movielimit" style="ellipse;whiteSpace=wrap;html=1;align=center;labelBackgroundColor=none;" parent="1" vertex="1">
          <mxGeometry x="-1260" y="760" width="100" height="40" as="geometry" />
        </mxCell>
        <mxCell id="9tpbVCxZHUeH7UBsNVS_-162" value="credit. acrd" style="rounded=1;arcSize=10;whiteSpace=wrap;html=1;align=center;labelBackgroundColor=none;" parent="1" vertex="1">
          <mxGeometry x="-1690" y="1030" width="100" height="40" as="geometry" />
        </mxCell>
        <mxCell id="9tpbVCxZHUeH7UBsNVS_-163" value="creditcard id" style="ellipse;whiteSpace=wrap;html=1;align=center;fontStyle=4;labelBackgroundColor=none;" parent="1" vertex="1">
          <mxGeometry x="-1890" y="1000" width="100" height="40" as="geometry" />
        </mxCell>
        <mxCell id="9tpbVCxZHUeH7UBsNVS_-164" value="cvc" style="ellipse;whiteSpace=wrap;html=1;align=center;labelBackgroundColor=none;" parent="1" vertex="1">
          <mxGeometry x="-1850" y="1070" width="100" height="40" as="geometry" />
        </mxCell>
        <mxCell id="9tpbVCxZHUeH7UBsNVS_-165" value="expiration date" style="ellipse;whiteSpace=wrap;html=1;align=center;labelBackgroundColor=none;" parent="1" vertex="1">
          <mxGeometry x="-1790" y="1129" width="100" height="40" as="geometry" />
        </mxCell>
        <mxCell id="9tpbVCxZHUeH7UBsNVS_-167" value="amount" style="ellipse;whiteSpace=wrap;html=1;align=center;labelBackgroundColor=none;" parent="1" vertex="1">
          <mxGeometry x="-1380" y="1410" width="100" height="40" as="geometry" />
        </mxCell>
        <mxCell id="9tpbVCxZHUeH7UBsNVS_-168" value="" style="endArrow=none;html=1;rounded=0;entryX=0.5;entryY=1;entryDx=0;entryDy=0;exitX=1;exitY=0.25;exitDx=0;exitDy=0;labelBackgroundColor=none;fontColor=default;" parent="1" source="9tpbVCxZHUeH7UBsNVS_-177" target="9tpbVCxZHUeH7UBsNVS_-156" edge="1">
          <mxGeometry relative="1" as="geometry">
            <mxPoint x="-1220" y="810" as="sourcePoint" />
            <mxPoint x="-1310" y="700" as="targetPoint" />
          </mxGeometry>
        </mxCell>
        <mxCell id="9tpbVCxZHUeH7UBsNVS_-169" value="" style="endArrow=none;html=1;rounded=0;exitX=0.25;exitY=1;exitDx=0;exitDy=0;entryX=0.5;entryY=0;entryDx=0;entryDy=0;labelBackgroundColor=none;fontColor=default;" parent="1" source="9tpbVCxZHUeH7UBsNVS_-162" target="9tpbVCxZHUeH7UBsNVS_-165" edge="1">
          <mxGeometry relative="1" as="geometry">
            <mxPoint x="-1460" y="710" as="sourcePoint" />
            <mxPoint x="-1300" y="710" as="targetPoint" />
          </mxGeometry>
        </mxCell>
        <mxCell id="9tpbVCxZHUeH7UBsNVS_-170" value="" style="endArrow=none;html=1;rounded=0;exitX=1;exitY=0;exitDx=0;exitDy=0;entryX=0;entryY=0.5;entryDx=0;entryDy=0;labelBackgroundColor=none;fontColor=default;" parent="1" source="9tpbVCxZHUeH7UBsNVS_-164" target="9tpbVCxZHUeH7UBsNVS_-162" edge="1">
          <mxGeometry relative="1" as="geometry">
            <mxPoint x="-1450" y="720" as="sourcePoint" />
            <mxPoint x="-1290" y="720" as="targetPoint" />
          </mxGeometry>
        </mxCell>
        <mxCell id="9tpbVCxZHUeH7UBsNVS_-172" value="" style="endArrow=none;html=1;rounded=0;exitX=1;exitY=1;exitDx=0;exitDy=0;entryX=0;entryY=0.25;entryDx=0;entryDy=0;labelBackgroundColor=none;fontColor=default;" parent="1" source="9tpbVCxZHUeH7UBsNVS_-163" target="9tpbVCxZHUeH7UBsNVS_-162" edge="1">
          <mxGeometry relative="1" as="geometry">
            <mxPoint x="-1430" y="740" as="sourcePoint" />
            <mxPoint x="-1270" y="740" as="targetPoint" />
          </mxGeometry>
        </mxCell>
        <mxCell id="9tpbVCxZHUeH7UBsNVS_-173" value="giftcard id" style="ellipse;whiteSpace=wrap;html=1;align=center;fontStyle=4;labelBackgroundColor=none;" parent="1" vertex="1">
          <mxGeometry x="-1620" y="1235" width="100" height="40" as="geometry" />
        </mxCell>
        <mxCell id="9tpbVCxZHUeH7UBsNVS_-174" value="" style="endArrow=none;html=1;rounded=0;exitX=0.5;exitY=1;exitDx=0;exitDy=0;entryX=0.175;entryY=0.395;entryDx=0;entryDy=0;entryPerimeter=0;labelBackgroundColor=none;fontColor=default;" parent="1" source="9tpbVCxZHUeH7UBsNVS_-173" target="9tpbVCxZHUeH7UBsNVS_-176" edge="1">
          <mxGeometry relative="1" as="geometry">
            <mxPoint x="-1050" y="940" as="sourcePoint" />
            <mxPoint x="-1668.9999999999995" y="793.7000000000003" as="targetPoint" />
          </mxGeometry>
        </mxCell>
        <mxCell id="9tpbVCxZHUeH7UBsNVS_-175" value="" style="endArrow=none;html=1;rounded=0;exitX=0.5;exitY=0;exitDx=0;exitDy=0;entryX=1;entryY=0;entryDx=0;entryDy=0;labelBackgroundColor=none;fontColor=default;" parent="1" source="9tpbVCxZHUeH7UBsNVS_-167" target="9tpbVCxZHUeH7UBsNVS_-176" edge="1">
          <mxGeometry relative="1" as="geometry">
            <mxPoint x="-1040" y="950" as="sourcePoint" />
            <mxPoint x="-1630" y="770" as="targetPoint" />
          </mxGeometry>
        </mxCell>
        <mxCell id="9tpbVCxZHUeH7UBsNVS_-176" value="gift card" style="whiteSpace=wrap;html=1;align=center;labelBackgroundColor=none;" parent="1" vertex="1">
          <mxGeometry x="-1489.9999999999995" y="1290.0000000000002" width="100" height="40" as="geometry" />
        </mxCell>
        <mxCell id="9tpbVCxZHUeH7UBsNVS_-177" value="subscription" style="whiteSpace=wrap;html=1;align=center;labelBackgroundColor=none;" parent="1" vertex="1">
          <mxGeometry x="-1420" y="790" width="100" height="40" as="geometry" />
        </mxCell>
        <mxCell id="9tpbVCxZHUeH7UBsNVS_-178" value="subscription id" style="ellipse;whiteSpace=wrap;html=1;align=center;fontStyle=4;labelBackgroundColor=none;" parent="1" vertex="1">
          <mxGeometry x="-1450" y="690" width="120" height="40" as="geometry" />
        </mxCell>
        <mxCell id="9tpbVCxZHUeH7UBsNVS_-179" value="" style="endArrow=none;html=1;rounded=0;exitX=0.5;exitY=1;exitDx=0;exitDy=0;entryX=0.5;entryY=0;entryDx=0;entryDy=0;labelBackgroundColor=none;fontColor=default;" parent="1" source="9tpbVCxZHUeH7UBsNVS_-178" target="9tpbVCxZHUeH7UBsNVS_-177" edge="1">
          <mxGeometry relative="1" as="geometry">
            <mxPoint x="-1050" y="940" as="sourcePoint" />
            <mxPoint x="-890" y="940" as="targetPoint" />
          </mxGeometry>
        </mxCell>
        <mxCell id="9tpbVCxZHUeH7UBsNVS_-180" value="has" style="shape=rhombus;perimeter=rhombusPerimeter;whiteSpace=wrap;html=1;align=center;labelBackgroundColor=none;" parent="1" vertex="1">
          <mxGeometry x="-1400" y="1180" width="120" height="60" as="geometry" />
        </mxCell>
        <mxCell id="9tpbVCxZHUeH7UBsNVS_-181" value="has" style="shape=rhombus;perimeter=rhombusPerimeter;whiteSpace=wrap;html=1;align=center;labelBackgroundColor=none;" parent="1" vertex="1">
          <mxGeometry x="-1510" y="980" width="120" height="60" as="geometry" />
        </mxCell>
        <mxCell id="9tpbVCxZHUeH7UBsNVS_-182" value="pay" style="shape=rhombus;perimeter=rhombusPerimeter;whiteSpace=wrap;html=1;align=center;labelBackgroundColor=none;" parent="1" vertex="1">
          <mxGeometry x="-1190" y="930" width="120" height="60" as="geometry" />
        </mxCell>
        <mxCell id="9tpbVCxZHUeH7UBsNVS_-184" value="" style="endArrow=none;html=1;rounded=0;exitX=0;exitY=0.5;exitDx=0;exitDy=0;labelBackgroundColor=none;fontColor=default;" parent="1" source="9tpbVCxZHUeH7UBsNVS_-180" target="9tpbVCxZHUeH7UBsNVS_-176" edge="1">
          <mxGeometry relative="1" as="geometry">
            <mxPoint x="-1570" y="930" as="sourcePoint" />
            <mxPoint x="-1410" y="930" as="targetPoint" />
          </mxGeometry>
        </mxCell>
        <mxCell id="9tpbVCxZHUeH7UBsNVS_-185" value="N" style="resizable=0;html=1;whiteSpace=wrap;align=right;verticalAlign=bottom;labelBackgroundColor=none;" parent="9tpbVCxZHUeH7UBsNVS_-184" connectable="0" vertex="1">
          <mxGeometry x="1" relative="1" as="geometry" />
        </mxCell>
        <mxCell id="9tpbVCxZHUeH7UBsNVS_-186" value="" style="endArrow=none;html=1;rounded=0;exitX=1;exitY=0.5;exitDx=0;exitDy=0;entryX=0;entryY=0.25;entryDx=0;entryDy=0;labelBackgroundColor=none;fontColor=default;" parent="1" source="9tpbVCxZHUeH7UBsNVS_-180" target="9tpbVCxZHUeH7UBsNVS_-1" edge="1">
          <mxGeometry relative="1" as="geometry">
            <mxPoint x="-1620" y="940" as="sourcePoint" />
            <mxPoint x="-1460" y="940" as="targetPoint" />
          </mxGeometry>
        </mxCell>
        <mxCell id="9tpbVCxZHUeH7UBsNVS_-187" value="1" style="resizable=0;html=1;whiteSpace=wrap;align=right;verticalAlign=bottom;labelBackgroundColor=none;" parent="9tpbVCxZHUeH7UBsNVS_-186" connectable="0" vertex="1">
          <mxGeometry x="1" relative="1" as="geometry" />
        </mxCell>
        <mxCell id="9tpbVCxZHUeH7UBsNVS_-188" value="" style="shape=link;html=1;rounded=0;exitX=0;exitY=0.5;exitDx=0;exitDy=0;entryX=1;entryY=0;entryDx=0;entryDy=0;labelBackgroundColor=none;fontColor=default;" parent="1" source="9tpbVCxZHUeH7UBsNVS_-181" target="9tpbVCxZHUeH7UBsNVS_-162" edge="1">
          <mxGeometry relative="1" as="geometry">
            <mxPoint x="-1500" y="1110" as="sourcePoint" />
            <mxPoint x="-1340" y="1110" as="targetPoint" />
          </mxGeometry>
        </mxCell>
        <mxCell id="9tpbVCxZHUeH7UBsNVS_-189" value="N" style="resizable=0;html=1;whiteSpace=wrap;align=right;verticalAlign=bottom;labelBackgroundColor=none;" parent="9tpbVCxZHUeH7UBsNVS_-188" connectable="0" vertex="1">
          <mxGeometry x="1" relative="1" as="geometry" />
        </mxCell>
        <mxCell id="9tpbVCxZHUeH7UBsNVS_-190" value="" style="shape=link;html=1;rounded=0;exitX=1;exitY=0.5;exitDx=0;exitDy=0;entryX=0.396;entryY=-0.039;entryDx=0;entryDy=0;entryPerimeter=0;labelBackgroundColor=none;fontColor=default;" parent="1" source="9tpbVCxZHUeH7UBsNVS_-181" target="9tpbVCxZHUeH7UBsNVS_-1" edge="1">
          <mxGeometry relative="1" as="geometry">
            <mxPoint x="-1490" y="900" as="sourcePoint" />
            <mxPoint x="-1330" y="900" as="targetPoint" />
            <Array as="points">
              <mxPoint x="-1350" y="1000" />
              <mxPoint x="-1040" y="1030" />
            </Array>
          </mxGeometry>
        </mxCell>
        <mxCell id="9tpbVCxZHUeH7UBsNVS_-191" value="1" style="resizable=0;html=1;whiteSpace=wrap;align=right;verticalAlign=bottom;labelBackgroundColor=none;" parent="9tpbVCxZHUeH7UBsNVS_-190" connectable="0" vertex="1">
          <mxGeometry x="1" relative="1" as="geometry" />
        </mxCell>
        <mxCell id="9tpbVCxZHUeH7UBsNVS_-200" value="subscription plan" style="ellipse;whiteSpace=wrap;html=1;align=center;labelBackgroundColor=none;" parent="1" vertex="1">
          <mxGeometry x="-1290" y="700" width="100" height="40" as="geometry" />
        </mxCell>
        <mxCell id="9tpbVCxZHUeH7UBsNVS_-203" value="interaction type" style="ellipse;whiteSpace=wrap;html=1;align=center;labelBackgroundColor=none;" parent="1" vertex="1">
          <mxGeometry x="-410" y="1060.0000000000005" width="100" height="40" as="geometry" />
        </mxCell>
        <mxCell id="9tpbVCxZHUeH7UBsNVS_-204" value="has" style="shape=rhombus;perimeter=rhombusPerimeter;whiteSpace=wrap;html=1;align=center;labelBackgroundColor=none;" parent="1" vertex="1">
          <mxGeometry x="-950" y="385" width="120" height="60" as="geometry" />
        </mxCell>
        <mxCell id="9tpbVCxZHUeH7UBsNVS_-205" value="genre" style="whiteSpace=wrap;html=1;align=center;labelBackgroundColor=none;" parent="1" vertex="1">
          <mxGeometry x="-1100" y="310" width="100" height="40" as="geometry" />
        </mxCell>
        <mxCell id="9tpbVCxZHUeH7UBsNVS_-206" value="genre id" style="ellipse;whiteSpace=wrap;html=1;align=center;fontStyle=4;labelBackgroundColor=none;" parent="1" vertex="1">
          <mxGeometry x="-1140" y="210" width="100" height="40" as="geometry" />
        </mxCell>
        <mxCell id="9tpbVCxZHUeH7UBsNVS_-207" value="gener name" style="ellipse;whiteSpace=wrap;html=1;align=center;labelBackgroundColor=none;" parent="1" vertex="1">
          <mxGeometry x="-1280" y="240" width="100" height="40" as="geometry" />
        </mxCell>
        <mxCell id="9tpbVCxZHUeH7UBsNVS_-208" value="" style="endArrow=none;html=1;rounded=0;exitX=0.36;exitY=1;exitDx=0;exitDy=0;exitPerimeter=0;entryX=0.5;entryY=0;entryDx=0;entryDy=0;labelBackgroundColor=none;fontColor=default;" parent="1" source="9tpbVCxZHUeH7UBsNVS_-206" target="9tpbVCxZHUeH7UBsNVS_-205" edge="1">
          <mxGeometry relative="1" as="geometry">
            <mxPoint x="-1420" y="-430" as="sourcePoint" />
            <mxPoint x="-1260" y="-430" as="targetPoint" />
          </mxGeometry>
        </mxCell>
        <mxCell id="9tpbVCxZHUeH7UBsNVS_-209" value="" style="endArrow=none;html=1;rounded=0;exitX=0.722;exitY=0.938;exitDx=0;exitDy=0;exitPerimeter=0;entryX=0;entryY=0.5;entryDx=0;entryDy=0;labelBackgroundColor=none;fontColor=default;" parent="1" source="9tpbVCxZHUeH7UBsNVS_-207" target="9tpbVCxZHUeH7UBsNVS_-205" edge="1">
          <mxGeometry relative="1" as="geometry">
            <mxPoint x="-1550" y="-240" as="sourcePoint" />
            <mxPoint x="-1390" y="-240" as="targetPoint" />
          </mxGeometry>
        </mxCell>
        <mxCell id="9tpbVCxZHUeH7UBsNVS_-210" value="" style="endArrow=none;html=1;rounded=0;entryX=1;entryY=0.5;entryDx=0;entryDy=0;exitX=0;exitY=0.5;exitDx=0;exitDy=0;labelBackgroundColor=none;fontColor=default;" parent="1" source="9tpbVCxZHUeH7UBsNVS_-204" target="9tpbVCxZHUeH7UBsNVS_-205" edge="1">
          <mxGeometry relative="1" as="geometry">
            <mxPoint x="-1430" y="-230" as="sourcePoint" />
            <mxPoint x="-1270" y="-230" as="targetPoint" />
          </mxGeometry>
        </mxCell>
        <mxCell id="9tpbVCxZHUeH7UBsNVS_-211" value="N" style="resizable=0;html=1;whiteSpace=wrap;align=right;verticalAlign=bottom;labelBackgroundColor=none;" parent="9tpbVCxZHUeH7UBsNVS_-210" connectable="0" vertex="1">
          <mxGeometry x="1" relative="1" as="geometry" />
        </mxCell>
        <mxCell id="9tpbVCxZHUeH7UBsNVS_-212" value="" style="shape=link;html=1;rounded=0;exitX=1;exitY=0.5;exitDx=0;exitDy=0;entryX=0;entryY=0.25;entryDx=0;entryDy=0;labelBackgroundColor=none;fontColor=default;" parent="1" source="9tpbVCxZHUeH7UBsNVS_-204" target="9tpbVCxZHUeH7UBsNVS_-103" edge="1">
          <mxGeometry relative="1" as="geometry">
            <mxPoint x="-1130" y="-250" as="sourcePoint" />
            <mxPoint x="-970" y="-250" as="targetPoint" />
          </mxGeometry>
        </mxCell>
        <mxCell id="9tpbVCxZHUeH7UBsNVS_-213" value="N" style="resizable=0;html=1;whiteSpace=wrap;align=right;verticalAlign=bottom;labelBackgroundColor=none;" parent="9tpbVCxZHUeH7UBsNVS_-212" connectable="0" vertex="1">
          <mxGeometry x="1" relative="1" as="geometry" />
        </mxCell>
        <mxCell id="zvyWYd292zEWhK0BPqlY-1" value="rating" style="ellipse;whiteSpace=wrap;html=1;align=center;labelBackgroundColor=none;" parent="1" vertex="1">
          <mxGeometry x="-735" y="280" width="100" height="40" as="geometry" />
        </mxCell>
        <mxCell id="zvyWYd292zEWhK0BPqlY-13" value="persontype" style="ellipse;whiteSpace=wrap;html=1;align=center;labelBackgroundColor=none;" parent="1" vertex="1">
          <mxGeometry x="-20" y="700" width="100" height="40" as="geometry" />
        </mxCell>
        <mxCell id="zvyWYd292zEWhK0BPqlY-14" value="" style="endArrow=none;html=1;rounded=0;exitX=0.5;exitY=1;exitDx=0;exitDy=0;entryX=0.5;entryY=0;entryDx=0;entryDy=0;labelBackgroundColor=none;fontColor=default;" parent="1" source="zvyWYd292zEWhK0BPqlY-13" target="9tpbVCxZHUeH7UBsNVS_-6" edge="1">
          <mxGeometry relative="1" as="geometry">
            <mxPoint x="400" y="720" as="sourcePoint" />
            <mxPoint x="560" y="720" as="targetPoint" />
          </mxGeometry>
        </mxCell>
        <mxCell id="zvyWYd292zEWhK0BPqlY-22" value="media" style="whiteSpace=wrap;html=1;align=center;labelBackgroundColor=none;" parent="1" vertex="1">
          <mxGeometry x="-1460" y="525" width="100" height="40" as="geometry" />
        </mxCell>
        <mxCell id="zvyWYd292zEWhK0BPqlY-23" value="media id" style="ellipse;whiteSpace=wrap;html=1;align=center;fontStyle=4;labelBackgroundColor=none;" parent="1" vertex="1">
          <mxGeometry x="-1590" y="460" width="100" height="40" as="geometry" />
        </mxCell>
        <mxCell id="zvyWYd292zEWhK0BPqlY-24" value="media loc" style="ellipse;whiteSpace=wrap;html=1;align=center;labelBackgroundColor=none;" parent="1" vertex="1">
          <mxGeometry x="-1630" y="550" width="100" height="40" as="geometry" />
        </mxCell>
        <mxCell id="zvyWYd292zEWhK0BPqlY-26" value="has" style="shape=rhombus;perimeter=rhombusPerimeter;whiteSpace=wrap;html=1;align=center;labelBackgroundColor=none;" parent="1" vertex="1">
          <mxGeometry x="-1100" y="510" width="120" height="60" as="geometry" />
        </mxCell>
        <mxCell id="zvyWYd292zEWhK0BPqlY-28" value="" style="endArrow=none;html=1;rounded=0;entryX=1;entryY=1;entryDx=0;entryDy=0;exitX=0;exitY=0;exitDx=0;exitDy=0;labelBackgroundColor=none;fontColor=default;" parent="1" source="zvyWYd292zEWhK0BPqlY-22" target="zvyWYd292zEWhK0BPqlY-23" edge="1">
          <mxGeometry relative="1" as="geometry">
            <mxPoint x="-1800" y="480" as="sourcePoint" />
            <mxPoint x="-1640" y="480" as="targetPoint" />
          </mxGeometry>
        </mxCell>
        <mxCell id="zvyWYd292zEWhK0BPqlY-29" value="" style="endArrow=none;html=1;rounded=0;entryX=0.914;entryY=0.22;entryDx=0;entryDy=0;entryPerimeter=0;exitX=0;exitY=0.5;exitDx=0;exitDy=0;labelBackgroundColor=none;fontColor=default;" parent="1" source="zvyWYd292zEWhK0BPqlY-22" target="zvyWYd292zEWhK0BPqlY-24" edge="1">
          <mxGeometry relative="1" as="geometry">
            <mxPoint x="-1790" y="490" as="sourcePoint" />
            <mxPoint x="-1630" y="490" as="targetPoint" />
          </mxGeometry>
        </mxCell>
        <mxCell id="zvyWYd292zEWhK0BPqlY-32" value="" style="shape=link;html=1;rounded=0;exitX=1;exitY=0.5;exitDx=0;exitDy=0;entryX=0;entryY=1;entryDx=0;entryDy=0;labelBackgroundColor=none;fontColor=default;" parent="1" source="zvyWYd292zEWhK0BPqlY-26" target="9tpbVCxZHUeH7UBsNVS_-103" edge="1">
          <mxGeometry relative="1" as="geometry">
            <mxPoint x="-1280" y="630" as="sourcePoint" />
            <mxPoint x="-1120" y="630" as="targetPoint" />
            <Array as="points">
              <mxPoint x="-840" y="520" />
            </Array>
          </mxGeometry>
        </mxCell>
        <mxCell id="zvyWYd292zEWhK0BPqlY-33" value="1" style="resizable=0;html=1;whiteSpace=wrap;align=right;verticalAlign=bottom;labelBackgroundColor=none;" parent="zvyWYd292zEWhK0BPqlY-32" connectable="0" vertex="1">
          <mxGeometry x="1" relative="1" as="geometry" />
        </mxCell>
        <mxCell id="zvyWYd292zEWhK0BPqlY-34" value="content type" style="ellipse;whiteSpace=wrap;html=1;align=center;labelBackgroundColor=none;" parent="1" vertex="1">
          <mxGeometry x="-570" y="300" width="100" height="40" as="geometry" />
        </mxCell>
        <mxCell id="zvyWYd292zEWhK0BPqlY-35" value="content cover" style="ellipse;whiteSpace=wrap;html=1;align=center;labelBackgroundColor=none;" parent="1" vertex="1">
          <mxGeometry x="-490" y="340" width="100" height="40" as="geometry" />
        </mxCell>
        <mxCell id="zvyWYd292zEWhK0BPqlY-36" value="" style="endArrow=none;html=1;rounded=0;exitX=0;exitY=1;exitDx=0;exitDy=0;entryX=0.918;entryY=0.05;entryDx=0;entryDy=0;entryPerimeter=0;labelBackgroundColor=none;fontColor=default;" parent="1" source="zvyWYd292zEWhK0BPqlY-34" target="9tpbVCxZHUeH7UBsNVS_-103" edge="1">
          <mxGeometry relative="1" as="geometry">
            <mxPoint x="-590" y="370" as="sourcePoint" />
            <mxPoint x="-430" y="370" as="targetPoint" />
          </mxGeometry>
        </mxCell>
        <mxCell id="zvyWYd292zEWhK0BPqlY-37" value="" style="endArrow=none;html=1;rounded=0;entryX=0.054;entryY=0.75;entryDx=0;entryDy=0;entryPerimeter=0;labelBackgroundColor=none;fontColor=default;" parent="1" source="9tpbVCxZHUeH7UBsNVS_-103" target="zvyWYd292zEWhK0BPqlY-35" edge="1">
          <mxGeometry relative="1" as="geometry">
            <mxPoint x="-580" y="380" as="sourcePoint" />
            <mxPoint x="-490" y="370" as="targetPoint" />
          </mxGeometry>
        </mxCell>
        <mxCell id="zvyWYd292zEWhK0BPqlY-38" value="price" style="ellipse;whiteSpace=wrap;html=1;align=center;labelBackgroundColor=none;" parent="1" vertex="1">
          <mxGeometry x="-1550" y="733.7" width="120" height="40" as="geometry" />
        </mxCell>
        <mxCell id="zvyWYd292zEWhK0BPqlY-39" value="" style="endArrow=none;html=1;rounded=0;exitX=1;exitY=1;exitDx=0;exitDy=0;entryX=0;entryY=0;entryDx=0;entryDy=0;labelBackgroundColor=none;fontColor=default;" parent="1" source="zvyWYd292zEWhK0BPqlY-38" target="9tpbVCxZHUeH7UBsNVS_-177" edge="1">
          <mxGeometry relative="1" as="geometry">
            <mxPoint x="-1380" y="740" as="sourcePoint" />
            <mxPoint x="-1360" y="800" as="targetPoint" />
          </mxGeometry>
        </mxCell>
        <mxCell id="zvyWYd292zEWhK0BPqlY-40" value="expiration date" style="ellipse;whiteSpace=wrap;html=1;align=center;labelBackgroundColor=none;" parent="1" vertex="1">
          <mxGeometry x="-1660" y="1320" width="100" height="40" as="geometry" />
        </mxCell>
        <mxCell id="zvyWYd292zEWhK0BPqlY-41" value="" style="endArrow=none;html=1;rounded=0;exitX=1;exitY=0.5;exitDx=0;exitDy=0;entryX=0;entryY=0.75;entryDx=0;entryDy=0;labelBackgroundColor=none;fontColor=default;" parent="1" source="zvyWYd292zEWhK0BPqlY-40" target="9tpbVCxZHUeH7UBsNVS_-176" edge="1">
          <mxGeometry relative="1" as="geometry">
            <mxPoint x="-1640" y="750" as="sourcePoint" />
            <mxPoint x="-1660" y="784" as="targetPoint" />
          </mxGeometry>
        </mxCell>
        <mxCell id="zvyWYd292zEWhK0BPqlY-42" value="tvseries" style="rounded=1;arcSize=10;whiteSpace=wrap;html=1;align=center;labelBackgroundColor=none;" parent="1" vertex="1">
          <mxGeometry x="-1560" y="320" width="100" height="40" as="geometry" />
        </mxCell>
        <mxCell id="zvyWYd292zEWhK0BPqlY-45" value="" style="shape=link;html=1;rounded=0;exitX=0;exitY=0.5;exitDx=0;exitDy=0;entryX=1;entryY=0.75;entryDx=0;entryDy=0;labelBackgroundColor=none;fontColor=default;" parent="1" source="zvyWYd292zEWhK0BPqlY-47" target="zvyWYd292zEWhK0BPqlY-42" edge="1">
          <mxGeometry relative="1" as="geometry">
            <mxPoint x="-1380" y="400" as="sourcePoint" />
            <mxPoint x="-1220" y="400" as="targetPoint" />
            <Array as="points">
              <mxPoint x="-1430" y="460" />
              <mxPoint x="-1400" y="350" />
            </Array>
          </mxGeometry>
        </mxCell>
        <mxCell id="zvyWYd292zEWhK0BPqlY-46" value="1" style="resizable=0;html=1;whiteSpace=wrap;align=right;verticalAlign=bottom;labelBackgroundColor=none;" parent="zvyWYd292zEWhK0BPqlY-45" connectable="0" vertex="1">
          <mxGeometry x="1" relative="1" as="geometry" />
        </mxCell>
        <mxCell id="zvyWYd292zEWhK0BPqlY-47" value="has" style="shape=rhombus;perimeter=rhombusPerimeter;whiteSpace=wrap;html=1;align=center;labelBackgroundColor=none;" parent="1" vertex="1">
          <mxGeometry x="-1320" y="440" width="120" height="60" as="geometry" />
        </mxCell>
        <mxCell id="zvyWYd292zEWhK0BPqlY-48" value="no of seasons" style="ellipse;whiteSpace=wrap;html=1;align=center;labelBackgroundColor=none;" parent="1" vertex="1">
          <mxGeometry x="-1620" y="220" width="100" height="40" as="geometry" />
        </mxCell>
        <mxCell id="zvyWYd292zEWhK0BPqlY-50" value="" style="endArrow=none;html=1;rounded=0;exitX=0.5;exitY=1;exitDx=0;exitDy=0;entryX=0.157;entryY=0.067;entryDx=0;entryDy=0;entryPerimeter=0;labelBackgroundColor=none;fontColor=default;" parent="1" source="zvyWYd292zEWhK0BPqlY-48" target="zvyWYd292zEWhK0BPqlY-42" edge="1">
          <mxGeometry relative="1" as="geometry">
            <mxPoint x="-1198" y="288" as="sourcePoint" />
            <mxPoint x="-1090" y="340" as="targetPoint" />
          </mxGeometry>
        </mxCell>
        <mxCell id="zvyWYd292zEWhK0BPqlY-52" value="ended/airing" style="ellipse;whiteSpace=wrap;html=1;align=center;labelBackgroundColor=none;" parent="1" vertex="1">
          <mxGeometry x="-1720" y="260" width="100" height="40" as="geometry" />
        </mxCell>
        <mxCell id="zvyWYd292zEWhK0BPqlY-53" value="" style="endArrow=none;html=1;rounded=0;exitX=1;exitY=1;exitDx=0;exitDy=0;labelBackgroundColor=none;fontColor=default;" parent="1" source="zvyWYd292zEWhK0BPqlY-52" edge="1">
          <mxGeometry relative="1" as="geometry">
            <mxPoint x="-1720" y="340" as="sourcePoint" />
            <mxPoint x="-1560" y="340" as="targetPoint" />
          </mxGeometry>
        </mxCell>
        <mxCell id="zvyWYd292zEWhK0BPqlY-82" value="" style="endArrow=none;html=1;rounded=0;exitX=0;exitY=0.5;exitDx=0;exitDy=0;labelBackgroundColor=none;fontColor=default;" parent="1" source="9tpbVCxZHUeH7UBsNVS_-81" edge="1">
          <mxGeometry relative="1" as="geometry">
            <mxPoint x="-490" y="470" as="sourcePoint" />
            <mxPoint x="-610" y="490" as="targetPoint" />
          </mxGeometry>
        </mxCell>
        <mxCell id="zvyWYd292zEWhK0BPqlY-83" value="N" style="resizable=0;html=1;whiteSpace=wrap;align=right;verticalAlign=bottom;labelBackgroundColor=none;" parent="zvyWYd292zEWhK0BPqlY-82" connectable="0" vertex="1">
          <mxGeometry x="1" relative="1" as="geometry" />
        </mxCell>
        <mxCell id="0FHXTKoMNQixK37kU5QV-1" value="recieved date" style="ellipse;whiteSpace=wrap;html=1;align=center;labelBackgroundColor=none;" parent="1" vertex="1">
          <mxGeometry x="-250" y="310" width="100" height="40" as="geometry" />
        </mxCell>
        <mxCell id="0FHXTKoMNQixK37kU5QV-2" value="" style="endArrow=none;html=1;rounded=0;exitX=0.5;exitY=0;exitDx=0;exitDy=0;entryX=0.5;entryY=1;entryDx=0;entryDy=0;labelBackgroundColor=none;fontColor=default;" parent="1" source="9tpbVCxZHUeH7UBsNVS_-81" target="0FHXTKoMNQixK37kU5QV-1" edge="1">
          <mxGeometry relative="1" as="geometry">
            <mxPoint x="-260" y="330" as="sourcePoint" />
            <mxPoint x="-100" y="330" as="targetPoint" />
          </mxGeometry>
        </mxCell>
        <mxCell id="0FHXTKoMNQixK37kU5QV-6" value="" style="shape=link;html=1;rounded=0;exitX=0;exitY=0.5;exitDx=0;exitDy=0;entryX=0.659;entryY=1.039;entryDx=0;entryDy=0;entryPerimeter=0;labelBackgroundColor=none;fontColor=default;" parent="1" source="9tpbVCxZHUeH7UBsNVS_-182" target="9tpbVCxZHUeH7UBsNVS_-177" edge="1">
          <mxGeometry relative="1" as="geometry">
            <mxPoint x="-980" y="960" as="sourcePoint" />
            <mxPoint x="-820" y="960" as="targetPoint" />
          </mxGeometry>
        </mxCell>
        <mxCell id="0FHXTKoMNQixK37kU5QV-7" value="1" style="resizable=0;html=1;whiteSpace=wrap;align=right;verticalAlign=bottom;labelBackgroundColor=none;" parent="0FHXTKoMNQixK37kU5QV-6" connectable="0" vertex="1">
          <mxGeometry x="1" relative="1" as="geometry" />
        </mxCell>
        <mxCell id="0FHXTKoMNQixK37kU5QV-8" value="" style="shape=link;html=1;rounded=0;exitX=1;exitY=0.5;exitDx=0;exitDy=0;labelBackgroundColor=none;fontColor=default;" parent="1" source="9tpbVCxZHUeH7UBsNVS_-182" target="9tpbVCxZHUeH7UBsNVS_-1" edge="1">
          <mxGeometry relative="1" as="geometry">
            <mxPoint x="-1010" y="990" as="sourcePoint" />
            <mxPoint x="-960" y="1080" as="targetPoint" />
            <Array as="points">
              <mxPoint x="-990" y="980" />
            </Array>
          </mxGeometry>
        </mxCell>
        <mxCell id="0FHXTKoMNQixK37kU5QV-9" value="N" style="resizable=0;html=1;whiteSpace=wrap;align=right;verticalAlign=bottom;labelBackgroundColor=none;" parent="0FHXTKoMNQixK37kU5QV-8" connectable="0" vertex="1">
          <mxGeometry x="1" relative="1" as="geometry" />
        </mxCell>
        <mxCell id="0FHXTKoMNQixK37kU5QV-12" value="contentCover" style="whiteSpace=wrap;html=1;align=center;" parent="1" vertex="1">
          <mxGeometry x="-1280" y="1820" width="100" height="40" as="geometry" />
        </mxCell>
        <mxCell id="0FHXTKoMNQixK37kU5QV-13" value="contentType" style="whiteSpace=wrap;html=1;align=center;" parent="1" vertex="1">
          <mxGeometry x="-1380" y="1820" width="100" height="40" as="geometry" />
        </mxCell>
        <mxCell id="0FHXTKoMNQixK37kU5QV-14" value="rating" style="whiteSpace=wrap;html=1;align=center;" parent="1" vertex="1">
          <mxGeometry x="-1480" y="1820" width="100" height="40" as="geometry" />
        </mxCell>
        <mxCell id="0FHXTKoMNQixK37kU5QV-15" value="release date" style="whiteSpace=wrap;html=1;align=center;" parent="1" vertex="1">
          <mxGeometry x="-1580" y="1820" width="100" height="40" as="geometry" />
        </mxCell>
        <mxCell id="0FHXTKoMNQixK37kU5QV-16" value="description" style="whiteSpace=wrap;html=1;align=center;" parent="1" vertex="1">
          <mxGeometry x="-1680" y="1820" width="100" height="40" as="geometry" />
        </mxCell>
        <mxCell id="0FHXTKoMNQixK37kU5QV-17" value="title" style="whiteSpace=wrap;html=1;align=center;" parent="1" vertex="1">
          <mxGeometry x="-1780" y="1820" width="100" height="40" as="geometry" />
        </mxCell>
        <mxCell id="0FHXTKoMNQixK37kU5QV-60" style="edgeStyle=orthogonalEdgeStyle;rounded=0;orthogonalLoop=1;jettySize=auto;html=1;exitX=0.5;exitY=1;exitDx=0;exitDy=0;" parent="1" source="0FHXTKoMNQixK37kU5QV-18" target="0FHXTKoMNQixK37kU5QV-52" edge="1">
          <mxGeometry relative="1" as="geometry">
            <Array as="points">
              <mxPoint x="-1830" y="1900" />
              <mxPoint x="-1050" y="1900" />
            </Array>
          </mxGeometry>
        </mxCell>
        <mxCell id="0FHXTKoMNQixK37kU5QV-75" style="edgeStyle=orthogonalEdgeStyle;rounded=0;orthogonalLoop=1;jettySize=auto;html=1;exitX=0.5;exitY=1;exitDx=0;exitDy=0;entryX=0.5;entryY=0;entryDx=0;entryDy=0;" parent="1" source="0FHXTKoMNQixK37kU5QV-18" target="0FHXTKoMNQixK37kU5QV-65" edge="1">
          <mxGeometry relative="1" as="geometry" />
        </mxCell>
        <mxCell id="0FHXTKoMNQixK37kU5QV-18" value="content_ID" style="whiteSpace=wrap;html=1;align=center;" parent="1" vertex="1">
          <mxGeometry x="-1880" y="1820" width="100" height="40" as="geometry" />
        </mxCell>
        <mxCell id="0FHXTKoMNQixK37kU5QV-19" value="content" style="text;strokeColor=none;fillColor=none;spacingLeft=4;spacingRight=4;overflow=hidden;rotatable=0;points=[[0,0.5],[1,0.5]];portConstraint=eastwest;fontSize=17;whiteSpace=wrap;html=1;" parent="1" vertex="1">
          <mxGeometry x="-1980" y="1825" width="100" height="30" as="geometry" />
        </mxCell>
        <mxCell id="0FHXTKoMNQixK37kU5QV-25" value="media" style="whiteSpace=wrap;html=1;align=center;" parent="1" vertex="1">
          <mxGeometry x="-1880" y="1940" width="100" height="40" as="geometry" />
        </mxCell>
        <mxCell id="0FHXTKoMNQixK37kU5QV-52" value="contentID" style="whiteSpace=wrap;html=1;align=center;" parent="1" vertex="1">
          <mxGeometry x="-1100" y="1930" width="100" height="40" as="geometry" />
        </mxCell>
        <mxCell id="0FHXTKoMNQixK37kU5QV-53" value="mediaID" style="whiteSpace=wrap;html=1;align=center;" parent="1" vertex="1">
          <mxGeometry x="-1980" y="1940" width="100" height="40" as="geometry" />
        </mxCell>
        <mxCell id="0FHXTKoMNQixK37kU5QV-54" value="genreID" style="whiteSpace=wrap;html=1;align=center;" parent="1" vertex="1">
          <mxGeometry x="-1000" y="1930" width="100" height="40" as="geometry" />
        </mxCell>
        <mxCell id="0FHXTKoMNQixK37kU5QV-61" style="edgeStyle=orthogonalEdgeStyle;rounded=0;orthogonalLoop=1;jettySize=auto;html=1;exitX=0.5;exitY=1;exitDx=0;exitDy=0;entryX=0.5;entryY=0;entryDx=0;entryDy=0;" parent="1" source="0FHXTKoMNQixK37kU5QV-55" target="0FHXTKoMNQixK37kU5QV-54" edge="1">
          <mxGeometry relative="1" as="geometry" />
        </mxCell>
        <mxCell id="0FHXTKoMNQixK37kU5QV-55" value="genreID" style="whiteSpace=wrap;html=1;align=center;" parent="1" vertex="1">
          <mxGeometry x="-980" y="1820" width="100" height="40" as="geometry" />
        </mxCell>
        <mxCell id="0FHXTKoMNQixK37kU5QV-56" value="genre" style="whiteSpace=wrap;html=1;align=center;" parent="1" vertex="1">
          <mxGeometry x="-880" y="1820" width="100" height="40" as="geometry" />
        </mxCell>
        <mxCell id="0FHXTKoMNQixK37kU5QV-58" value="genre" style="text;strokeColor=none;fillColor=none;spacingLeft=4;spacingRight=4;overflow=hidden;rotatable=0;points=[[0,0.5],[1,0.5]];portConstraint=eastwest;fontSize=17;whiteSpace=wrap;html=1;" parent="1" vertex="1">
          <mxGeometry x="-1040" y="1825" width="100" height="30" as="geometry" />
        </mxCell>
        <mxCell id="0FHXTKoMNQixK37kU5QV-59" value="content_genre" style="text;strokeColor=none;fillColor=none;spacingLeft=4;spacingRight=4;overflow=hidden;rotatable=0;points=[[0,0.5],[1,0.5]];portConstraint=eastwest;fontSize=17;whiteSpace=wrap;html=1;" parent="1" vertex="1">
          <mxGeometry x="-1220" y="1935" width="150" height="30" as="geometry" />
        </mxCell>
        <mxCell id="0FHXTKoMNQixK37kU5QV-62" value="contentID" style="ellipse;whiteSpace=wrap;html=1;align=center;fontStyle=4;" parent="1" vertex="1">
          <mxGeometry x="-1490" y="230" width="100" height="40" as="geometry" />
        </mxCell>
        <mxCell id="0FHXTKoMNQixK37kU5QV-63" value="" style="endArrow=none;html=1;rounded=0;exitX=0.61;exitY=-0.029;exitDx=0;exitDy=0;exitPerimeter=0;entryX=0.5;entryY=1;entryDx=0;entryDy=0;" parent="1" source="zvyWYd292zEWhK0BPqlY-42" target="0FHXTKoMNQixK37kU5QV-62" edge="1">
          <mxGeometry relative="1" as="geometry">
            <mxPoint x="-1500" y="290" as="sourcePoint" />
            <mxPoint x="-1340" y="290" as="targetPoint" />
          </mxGeometry>
        </mxCell>
        <mxCell id="0FHXTKoMNQixK37kU5QV-65" value="contentId" style="whiteSpace=wrap;html=1;align=center;" parent="1" vertex="1">
          <mxGeometry x="-1780" y="1940" width="100" height="40" as="geometry" />
        </mxCell>
        <mxCell id="0FHXTKoMNQixK37kU5QV-67" value="awardID" style="whiteSpace=wrap;html=1;align=center;" parent="1" vertex="1">
          <mxGeometry x="-2330" y="2200" width="100" height="40" as="geometry" />
        </mxCell>
        <mxCell id="0FHXTKoMNQixK37kU5QV-68" value="awardName" style="whiteSpace=wrap;html=1;align=center;" parent="1" vertex="1">
          <mxGeometry x="-2310" y="2070" width="100" height="40" as="geometry" />
        </mxCell>
        <mxCell id="0FHXTKoMNQixK37kU5QV-69" value="awardID" style="whiteSpace=wrap;html=1;align=center;" parent="1" vertex="1">
          <mxGeometry x="-2410" y="2070" width="100" height="40" as="geometry" />
        </mxCell>
        <mxCell id="0FHXTKoMNQixK37kU5QV-70" value="recievedDate" style="whiteSpace=wrap;html=1;align=center;" parent="1" vertex="1">
          <mxGeometry x="-2130" y="2200" width="100" height="40" as="geometry" />
        </mxCell>
        <mxCell id="0FHXTKoMNQixK37kU5QV-71" value="contentID" style="whiteSpace=wrap;html=1;align=center;" parent="1" vertex="1">
          <mxGeometry x="-2230" y="2200" width="100" height="40" as="geometry" />
        </mxCell>
        <mxCell id="0FHXTKoMNQixK37kU5QV-72" value="contentID" style="whiteSpace=wrap;html=1;align=center;" parent="1" vertex="1">
          <mxGeometry x="-860" y="2270" width="100" height="40" as="geometry" />
        </mxCell>
        <mxCell id="0FHXTKoMNQixK37kU5QV-76" value="" style="endArrow=classic;html=1;rounded=0;entryX=0.5;entryY=0;entryDx=0;entryDy=0;" parent="1" edge="1">
          <mxGeometry width="50" height="50" relative="1" as="geometry">
            <mxPoint x="-1640" y="1900" as="sourcePoint" />
            <mxPoint x="-2170" y="2199.9999999999995" as="targetPoint" />
            <Array as="points">
              <mxPoint x="-1640" y="2060" />
              <mxPoint x="-1700" y="2060" />
              <mxPoint x="-2170" y="2060" />
            </Array>
          </mxGeometry>
        </mxCell>
        <mxCell id="0FHXTKoMNQixK37kU5QV-77" style="edgeStyle=orthogonalEdgeStyle;rounded=0;orthogonalLoop=1;jettySize=auto;html=1;exitX=0.5;exitY=1;exitDx=0;exitDy=0;entryX=0.401;entryY=0.075;entryDx=0;entryDy=0;entryPerimeter=0;" parent="1" source="0FHXTKoMNQixK37kU5QV-69" target="0FHXTKoMNQixK37kU5QV-67" edge="1">
          <mxGeometry relative="1" as="geometry" />
        </mxCell>
        <mxCell id="0FHXTKoMNQixK37kU5QV-78" value="dob" style="whiteSpace=wrap;html=1;align=center;" parent="1" vertex="1">
          <mxGeometry x="-490" y="2105" width="100" height="40" as="geometry" />
        </mxCell>
        <mxCell id="0FHXTKoMNQixK37kU5QV-79" value="persontype" style="whiteSpace=wrap;html=1;align=center;" parent="1" vertex="1">
          <mxGeometry x="-590" y="2105" width="100" height="40" as="geometry" />
        </mxCell>
        <mxCell id="0FHXTKoMNQixK37kU5QV-84" style="edgeStyle=orthogonalEdgeStyle;rounded=0;orthogonalLoop=1;jettySize=auto;html=1;exitX=0.5;exitY=1;exitDx=0;exitDy=0;" parent="1" source="0FHXTKoMNQixK37kU5QV-80" target="0FHXTKoMNQixK37kU5QV-83" edge="1">
          <mxGeometry relative="1" as="geometry" />
        </mxCell>
        <mxCell id="0FHXTKoMNQixK37kU5QV-80" value="personID" style="whiteSpace=wrap;html=1;align=center;" parent="1" vertex="1">
          <mxGeometry x="-890" y="2105" width="100" height="40" as="geometry" />
        </mxCell>
        <mxCell id="0FHXTKoMNQixK37kU5QV-81" value="firstName" style="whiteSpace=wrap;html=1;align=center;" parent="1" vertex="1">
          <mxGeometry x="-790" y="2105" width="100" height="40" as="geometry" />
        </mxCell>
        <mxCell id="0FHXTKoMNQixK37kU5QV-82" value="LastName" style="whiteSpace=wrap;html=1;align=center;" parent="1" vertex="1">
          <mxGeometry x="-690" y="2105" width="100" height="40" as="geometry" />
        </mxCell>
        <mxCell id="0FHXTKoMNQixK37kU5QV-83" value="personID" style="whiteSpace=wrap;html=1;align=center;" parent="1" vertex="1">
          <mxGeometry x="-760" y="2270" width="100" height="40" as="geometry" />
        </mxCell>
        <mxCell id="0FHXTKoMNQixK37kU5QV-85" value="" style="endArrow=classic;html=1;rounded=0;entryX=0.5;entryY=0;entryDx=0;entryDy=0;" parent="1" target="0FHXTKoMNQixK37kU5QV-72" edge="1">
          <mxGeometry width="50" height="50" relative="1" as="geometry">
            <mxPoint x="-1220" y="1900" as="sourcePoint" />
            <mxPoint x="-1100" y="2220" as="targetPoint" />
            <Array as="points">
              <mxPoint x="-1220" y="2240" />
              <mxPoint x="-810" y="2240" />
            </Array>
          </mxGeometry>
        </mxCell>
        <mxCell id="0FHXTKoMNQixK37kU5QV-86" value="status" style="whiteSpace=wrap;html=1;align=center;" parent="1" vertex="1">
          <mxGeometry x="-2270" y="1940" width="100" height="40" as="geometry" />
        </mxCell>
        <mxCell id="0FHXTKoMNQixK37kU5QV-87" value="noofsaesons" style="whiteSpace=wrap;html=1;align=center;" parent="1" vertex="1">
          <mxGeometry x="-2370" y="1940" width="100" height="40" as="geometry" />
        </mxCell>
        <mxCell id="0FHXTKoMNQixK37kU5QV-88" value="userID" style="whiteSpace=wrap;html=1;align=center;" parent="1" vertex="1">
          <mxGeometry x="-1160" y="2420" width="100" height="40" as="geometry" />
        </mxCell>
        <mxCell id="0FHXTKoMNQixK37kU5QV-89" value="contentID" style="whiteSpace=wrap;html=1;align=center;" parent="1" vertex="1">
          <mxGeometry x="-1260" y="2420" width="100" height="40" as="geometry" />
        </mxCell>
        <mxCell id="0FHXTKoMNQixK37kU5QV-90" value="interactionDate" style="whiteSpace=wrap;html=1;align=center;" parent="1" vertex="1">
          <mxGeometry x="-1360" y="2420" width="100" height="40" as="geometry" />
        </mxCell>
        <mxCell id="0FHXTKoMNQixK37kU5QV-91" value="userinteractionID" style="whiteSpace=wrap;html=1;align=center;" parent="1" vertex="1">
          <mxGeometry x="-1560" y="2420" width="100" height="40" as="geometry" />
        </mxCell>
        <mxCell id="0FHXTKoMNQixK37kU5QV-92" value="interactionType" style="whiteSpace=wrap;html=1;align=center;" parent="1" vertex="1">
          <mxGeometry x="-1460" y="2420" width="100" height="40" as="geometry" />
        </mxCell>
        <mxCell id="0FHXTKoMNQixK37kU5QV-93" value="" style="endArrow=classic;html=1;rounded=0;entryX=0.5;entryY=0;entryDx=0;entryDy=0;noJump=0;" parent="1" target="0FHXTKoMNQixK37kU5QV-89" edge="1">
          <mxGeometry width="50" height="50" relative="1" as="geometry">
            <mxPoint x="-1240" y="1900" as="sourcePoint" />
            <mxPoint x="-1280" y="2330" as="targetPoint" />
            <Array as="points">
              <mxPoint x="-1240" y="2180" />
              <mxPoint x="-1240" y="2310" />
              <mxPoint x="-1210" y="2310" />
            </Array>
          </mxGeometry>
        </mxCell>
        <mxCell id="0FHXTKoMNQixK37kU5QV-94" value="contentId" style="whiteSpace=wrap;html=1;align=center;" parent="1" vertex="1">
          <mxGeometry x="-2470" y="1940" width="100" height="40" as="geometry" />
        </mxCell>
        <mxCell id="0FHXTKoMNQixK37kU5QV-95" value="" style="endArrow=classic;html=1;rounded=0;entryX=0.5;entryY=0;entryDx=0;entryDy=0;" parent="1" target="0FHXTKoMNQixK37kU5QV-94" edge="1">
          <mxGeometry width="50" height="50" relative="1" as="geometry">
            <mxPoint x="-1830" y="1900" as="sourcePoint" />
            <mxPoint x="-1870" y="1870" as="targetPoint" />
            <Array as="points">
              <mxPoint x="-2420" y="1900" />
            </Array>
          </mxGeometry>
        </mxCell>
        <mxCell id="clVnKKF5C-X62gA4_ED_-3" value="username" style="whiteSpace=wrap;html=1;align=center;" vertex="1" parent="1">
          <mxGeometry x="-2220" y="2400" width="100" height="40" as="geometry" />
        </mxCell>
        <mxCell id="clVnKKF5C-X62gA4_ED_-14" style="edgeStyle=orthogonalEdgeStyle;rounded=0;orthogonalLoop=1;jettySize=auto;html=1;exitX=0.5;exitY=1;exitDx=0;exitDy=0;entryX=0.5;entryY=0;entryDx=0;entryDy=0;" edge="1" parent="1" source="clVnKKF5C-X62gA4_ED_-4" target="clVnKKF5C-X62gA4_ED_-13">
          <mxGeometry relative="1" as="geometry" />
        </mxCell>
        <mxCell id="clVnKKF5C-X62gA4_ED_-4" value="userID" style="whiteSpace=wrap;html=1;align=center;" vertex="1" parent="1">
          <mxGeometry x="-2320" y="2400" width="100" height="40" as="geometry" />
        </mxCell>
        <mxCell id="clVnKKF5C-X62gA4_ED_-6" value="subcriptionID" style="whiteSpace=wrap;html=1;align=center;" vertex="1" parent="1">
          <mxGeometry x="-1920" y="2400" width="100" height="40" as="geometry" />
        </mxCell>
        <mxCell id="clVnKKF5C-X62gA4_ED_-7" value="email" style="whiteSpace=wrap;html=1;align=center;" vertex="1" parent="1">
          <mxGeometry x="-2020" y="2400" width="100" height="40" as="geometry" />
        </mxCell>
        <mxCell id="clVnKKF5C-X62gA4_ED_-8" value="password" style="whiteSpace=wrap;html=1;align=center;" vertex="1" parent="1">
          <mxGeometry x="-2120" y="2400" width="100" height="40" as="geometry" />
        </mxCell>
        <mxCell id="clVnKKF5C-X62gA4_ED_-9" style="edgeStyle=orthogonalEdgeStyle;rounded=0;orthogonalLoop=1;jettySize=auto;html=1;exitX=0.5;exitY=1;exitDx=0;exitDy=0;entryX=0.599;entryY=1.075;entryDx=0;entryDy=0;entryPerimeter=0;" edge="1" parent="1" source="clVnKKF5C-X62gA4_ED_-4" target="0FHXTKoMNQixK37kU5QV-88">
          <mxGeometry relative="1" as="geometry">
            <Array as="points">
              <mxPoint x="-2270" y="2530" />
              <mxPoint x="-1100" y="2530" />
            </Array>
          </mxGeometry>
        </mxCell>
        <mxCell id="clVnKKF5C-X62gA4_ED_-10" value="giftcardID" style="whiteSpace=wrap;html=1;align=center;" vertex="1" parent="1">
          <mxGeometry x="-2940" y="2500" width="100" height="40" as="geometry" />
        </mxCell>
        <mxCell id="clVnKKF5C-X62gA4_ED_-11" value="exoirydate" style="whiteSpace=wrap;html=1;align=center;" vertex="1" parent="1">
          <mxGeometry x="-2740" y="2500" width="100" height="40" as="geometry" />
        </mxCell>
        <mxCell id="clVnKKF5C-X62gA4_ED_-12" value="amount" style="whiteSpace=wrap;html=1;align=center;" vertex="1" parent="1">
          <mxGeometry x="-2840" y="2500" width="100" height="40" as="geometry" />
        </mxCell>
        <mxCell id="clVnKKF5C-X62gA4_ED_-21" style="edgeStyle=orthogonalEdgeStyle;rounded=0;orthogonalLoop=1;jettySize=auto;html=1;" edge="1" parent="1" target="clVnKKF5C-X62gA4_ED_-18">
          <mxGeometry relative="1" as="geometry">
            <mxPoint x="-2340" y="2470" as="sourcePoint" />
            <Array as="points">
              <mxPoint x="-2330" y="2470" />
              <mxPoint x="-2330" y="2570" />
              <mxPoint x="-2600" y="2570" />
            </Array>
          </mxGeometry>
        </mxCell>
        <mxCell id="clVnKKF5C-X62gA4_ED_-13" value="userID" style="whiteSpace=wrap;html=1;align=center;" vertex="1" parent="1">
          <mxGeometry x="-2640" y="2500" width="100" height="40" as="geometry" />
        </mxCell>
        <mxCell id="clVnKKF5C-X62gA4_ED_-15" value="creditcradID" style="whiteSpace=wrap;html=1;align=center;" vertex="1" parent="1">
          <mxGeometry x="-2950" y="2610" width="100" height="40" as="geometry" />
        </mxCell>
        <mxCell id="clVnKKF5C-X62gA4_ED_-16" value="userID" style="whiteSpace=wrap;html=1;align=center;" vertex="1" parent="1">
          <mxGeometry x="-1750" y="2230" width="100" height="40" as="geometry" />
        </mxCell>
        <mxCell id="clVnKKF5C-X62gA4_ED_-18" value="userID" style="whiteSpace=wrap;html=1;align=center;" vertex="1" parent="1">
          <mxGeometry x="-2650" y="2610" width="100" height="40" as="geometry" />
        </mxCell>
        <mxCell id="clVnKKF5C-X62gA4_ED_-19" value="cvv" style="whiteSpace=wrap;html=1;align=center;" vertex="1" parent="1">
          <mxGeometry x="-2750" y="2610" width="100" height="40" as="geometry" />
        </mxCell>
        <mxCell id="clVnKKF5C-X62gA4_ED_-20" value="expiry date" style="whiteSpace=wrap;html=1;align=center;" vertex="1" parent="1">
          <mxGeometry x="-2850" y="2610" width="100" height="40" as="geometry" />
        </mxCell>
        <mxCell id="clVnKKF5C-X62gA4_ED_-26" style="edgeStyle=orthogonalEdgeStyle;rounded=0;orthogonalLoop=1;jettySize=auto;html=1;exitX=0.5;exitY=1;exitDx=0;exitDy=0;entryX=0.5;entryY=0;entryDx=0;entryDy=0;" edge="1" parent="1" source="clVnKKF5C-X62gA4_ED_-22" target="clVnKKF5C-X62gA4_ED_-6">
          <mxGeometry relative="1" as="geometry" />
        </mxCell>
        <mxCell id="clVnKKF5C-X62gA4_ED_-22" value="subcriptionID" style="whiteSpace=wrap;html=1;align=center;" vertex="1" parent="1">
          <mxGeometry x="-2710" y="2310" width="100" height="40" as="geometry" />
        </mxCell>
        <mxCell id="clVnKKF5C-X62gA4_ED_-23" value="movielimit" style="whiteSpace=wrap;html=1;align=center;" vertex="1" parent="1">
          <mxGeometry x="-2410" y="2310" width="100" height="40" as="geometry" />
        </mxCell>
        <mxCell id="clVnKKF5C-X62gA4_ED_-24" value="price" style="whiteSpace=wrap;html=1;align=center;" vertex="1" parent="1">
          <mxGeometry x="-2510" y="2310" width="100" height="40" as="geometry" />
        </mxCell>
        <mxCell id="clVnKKF5C-X62gA4_ED_-25" value="subcriptionType" style="whiteSpace=wrap;html=1;align=center;" vertex="1" parent="1">
          <mxGeometry x="-2610" y="2310" width="100" height="40" as="geometry" />
        </mxCell>
        <mxCell id="clVnKKF5C-X62gA4_ED_-27" value="contentID" style="whiteSpace=wrap;html=1;align=center;" vertex="1" parent="1">
          <mxGeometry x="-1850" y="2230" width="100" height="40" as="geometry" />
        </mxCell>
        <mxCell id="clVnKKF5C-X62gA4_ED_-28" value="" style="endArrow=classic;html=1;rounded=0;entryX=0.5;entryY=0;entryDx=0;entryDy=0;" edge="1" parent="1" target="clVnKKF5C-X62gA4_ED_-27">
          <mxGeometry width="50" height="50" relative="1" as="geometry">
            <mxPoint x="-1550" y="1900" as="sourcePoint" />
            <mxPoint x="-1790" y="2130" as="targetPoint" />
            <Array as="points">
              <mxPoint x="-1550" y="2130" />
              <mxPoint x="-1800" y="2130" />
            </Array>
          </mxGeometry>
        </mxCell>
        <mxCell id="clVnKKF5C-X62gA4_ED_-29" value="" style="endArrow=classic;html=1;rounded=0;entryX=0.5;entryY=1;entryDx=0;entryDy=0;" edge="1" parent="1" target="clVnKKF5C-X62gA4_ED_-16">
          <mxGeometry width="50" height="50" relative="1" as="geometry">
            <mxPoint x="-1700" y="2530" as="sourcePoint" />
            <mxPoint x="-1780" y="2140" as="targetPoint" />
            <Array as="points">
              <mxPoint x="-1700" y="2390" />
            </Array>
          </mxGeometry>
        </mxCell>
        <mxCell id="clVnKKF5C-X62gA4_ED_-32" value="TV series" style="text;strokeColor=none;fillColor=none;spacingLeft=4;spacingRight=4;overflow=hidden;rotatable=0;points=[[0,0.5],[1,0.5]];portConstraint=eastwest;fontSize=17;whiteSpace=wrap;html=1;" vertex="1" parent="1">
          <mxGeometry x="-2580" y="1945" width="100" height="30" as="geometry" />
        </mxCell>
        <mxCell id="clVnKKF5C-X62gA4_ED_-34" value="media" style="text;strokeColor=none;fillColor=none;spacingLeft=4;spacingRight=4;overflow=hidden;rotatable=0;points=[[0,0.5],[1,0.5]];portConstraint=eastwest;fontSize=17;whiteSpace=wrap;html=1;" vertex="1" parent="1">
          <mxGeometry x="-2040" y="1945" width="100" height="30" as="geometry" />
        </mxCell>
        <mxCell id="clVnKKF5C-X62gA4_ED_-35" value="" style="shape=link;html=1;rounded=0;exitX=0;exitY=0.5;exitDx=0;exitDy=0;width=4.2857142857142865;entryX=1;entryY=0.5;entryDx=0;entryDy=0;" edge="1" parent="1" source="zvyWYd292zEWhK0BPqlY-26" target="zvyWYd292zEWhK0BPqlY-22">
          <mxGeometry relative="1" as="geometry">
            <mxPoint x="-1250" y="590" as="sourcePoint" />
            <mxPoint x="-1090" y="590" as="targetPoint" />
          </mxGeometry>
        </mxCell>
        <mxCell id="clVnKKF5C-X62gA4_ED_-36" value="1" style="resizable=0;html=1;whiteSpace=wrap;align=right;verticalAlign=bottom;" connectable="0" vertex="1" parent="clVnKKF5C-X62gA4_ED_-35">
          <mxGeometry x="1" relative="1" as="geometry" />
        </mxCell>
        <mxCell id="clVnKKF5C-X62gA4_ED_-37" value="person" style="text;strokeColor=none;fillColor=none;spacingLeft=4;spacingRight=4;overflow=hidden;rotatable=0;points=[[0,0.5],[1,0.5]];portConstraint=eastwest;fontSize=17;whiteSpace=wrap;html=1;" vertex="1" parent="1">
          <mxGeometry x="-950" y="2105" width="100" height="30" as="geometry" />
        </mxCell>
        <mxCell id="clVnKKF5C-X62gA4_ED_-38" value="content_person" style="text;strokeColor=none;fillColor=none;spacingLeft=4;spacingRight=4;overflow=hidden;rotatable=0;points=[[0,0.5],[1,0.5]];portConstraint=eastwest;fontSize=17;whiteSpace=wrap;html=1;" vertex="1" parent="1">
          <mxGeometry x="-990" y="2275" width="130" height="30" as="geometry" />
        </mxCell>
        <mxCell id="clVnKKF5C-X62gA4_ED_-39" value="award" style="text;strokeColor=none;fillColor=none;spacingLeft=4;spacingRight=4;overflow=hidden;rotatable=0;points=[[0,0.5],[1,0.5]];portConstraint=eastwest;fontSize=17;whiteSpace=wrap;html=1;" vertex="1" parent="1">
          <mxGeometry x="-2470" y="2075" width="100" height="30" as="geometry" />
        </mxCell>
        <mxCell id="clVnKKF5C-X62gA4_ED_-40" value="content_awrd" style="text;strokeColor=none;fillColor=none;spacingLeft=4;spacingRight=4;overflow=hidden;rotatable=0;points=[[0,0.5],[1,0.5]];portConstraint=eastwest;fontSize=17;whiteSpace=wrap;html=1;" vertex="1" parent="1">
          <mxGeometry x="-2440" y="2205" width="110" height="30" as="geometry" />
        </mxCell>
        <mxCell id="clVnKKF5C-X62gA4_ED_-41" value="content_user" style="text;strokeColor=none;fillColor=none;spacingLeft=4;spacingRight=4;overflow=hidden;rotatable=0;points=[[0,0.5],[1,0.5]];portConstraint=eastwest;fontSize=17;whiteSpace=wrap;html=1;" vertex="1" parent="1">
          <mxGeometry x="-1960" y="2235" width="110" height="30" as="geometry" />
        </mxCell>
        <mxCell id="clVnKKF5C-X62gA4_ED_-42" value="subscription&amp;nbsp;" style="text;strokeColor=none;fillColor=none;spacingLeft=4;spacingRight=4;overflow=hidden;rotatable=0;points=[[0,0.5],[1,0.5]];portConstraint=eastwest;fontSize=17;whiteSpace=wrap;html=1;" vertex="1" parent="1">
          <mxGeometry x="-2810" y="2315" width="100" height="30" as="geometry" />
        </mxCell>
        <mxCell id="clVnKKF5C-X62gA4_ED_-43" value="user" style="text;strokeColor=none;fillColor=none;spacingLeft=4;spacingRight=4;overflow=hidden;rotatable=0;points=[[0,0.5],[1,0.5]];portConstraint=eastwest;fontSize=17;whiteSpace=wrap;html=1;" vertex="1" parent="1">
          <mxGeometry x="-2370" y="2405" width="100" height="30" as="geometry" />
        </mxCell>
        <mxCell id="clVnKKF5C-X62gA4_ED_-44" value="creditcard" style="text;strokeColor=none;fillColor=none;spacingLeft=4;spacingRight=4;overflow=hidden;rotatable=0;points=[[0,0.5],[1,0.5]];portConstraint=eastwest;fontSize=17;whiteSpace=wrap;html=1;" vertex="1" parent="1">
          <mxGeometry x="-3040" y="2615" width="100" height="30" as="geometry" />
        </mxCell>
        <mxCell id="clVnKKF5C-X62gA4_ED_-45" value="giftcard" style="text;strokeColor=none;fillColor=none;spacingLeft=4;spacingRight=4;overflow=hidden;rotatable=0;points=[[0,0.5],[1,0.5]];portConstraint=eastwest;fontSize=17;whiteSpace=wrap;html=1;" vertex="1" parent="1">
          <mxGeometry x="-3010" y="2505" width="100" height="30" as="geometry" />
        </mxCell>
        <mxCell id="clVnKKF5C-X62gA4_ED_-46" value="userinteraction" style="text;strokeColor=none;fillColor=none;spacingLeft=4;spacingRight=4;overflow=hidden;rotatable=0;points=[[0,0.5],[1,0.5]];portConstraint=eastwest;fontSize=17;whiteSpace=wrap;html=1;" vertex="1" parent="1">
          <mxGeometry x="-1680" y="2425" width="120" height="30" as="geometry" />
        </mxCell>
        <mxCell id="clVnKKF5C-X62gA4_ED_-47" value="" style="shape=link;html=1;rounded=0;exitX=1;exitY=0.5;exitDx=0;exitDy=0;entryX=0;entryY=0.5;entryDx=0;entryDy=0;" edge="1" parent="1" source="zvyWYd292zEWhK0BPqlY-47" target="9tpbVCxZHUeH7UBsNVS_-103">
          <mxGeometry relative="1" as="geometry">
            <mxPoint x="-1150" y="469.09" as="sourcePoint" />
            <mxPoint x="-990" y="469.09" as="targetPoint" />
          </mxGeometry>
        </mxCell>
        <mxCell id="clVnKKF5C-X62gA4_ED_-48" value="1" style="resizable=0;html=1;whiteSpace=wrap;align=right;verticalAlign=bottom;" connectable="0" vertex="1" parent="clVnKKF5C-X62gA4_ED_-47">
          <mxGeometry x="1" relative="1" as="geometry" />
        </mxCell>
        <mxCell id="clVnKKF5C-X62gA4_ED_-49" value="date" style="ellipse;whiteSpace=wrap;html=1;align=center;" vertex="1" parent="1">
          <mxGeometry x="-810" y="750" width="100" height="40" as="geometry" />
        </mxCell>
        <mxCell id="clVnKKF5C-X62gA4_ED_-50" value="" style="endArrow=none;html=1;rounded=0;entryX=1;entryY=0.5;entryDx=0;entryDy=0;exitX=0;exitY=0.5;exitDx=0;exitDy=0;" edge="1" parent="1" source="clVnKKF5C-X62gA4_ED_-49" target="clVnKKF5C-X62gA4_ED_-76">
          <mxGeometry relative="1" as="geometry">
            <mxPoint x="-800" y="710" as="sourcePoint" />
            <mxPoint x="-640" y="710" as="targetPoint" />
          </mxGeometry>
        </mxCell>
        <mxCell id="clVnKKF5C-X62gA4_ED_-51" value="date" style="whiteSpace=wrap;html=1;align=center;" vertex="1" parent="1">
          <mxGeometry x="-1650" y="2230" width="100" height="40" as="geometry" />
        </mxCell>
        <mxCell id="clVnKKF5C-X62gA4_ED_-52" value="" style="line;strokeWidth=1;rotatable=0;dashed=0;labelPosition=right;align=left;verticalAlign=middle;spacingTop=0;spacingLeft=6;points=[];portConstraint=eastwest;" vertex="1" parent="1">
          <mxGeometry x="-1860" y="1845" width="60" height="10" as="geometry" />
        </mxCell>
        <mxCell id="clVnKKF5C-X62gA4_ED_-53" value="" style="line;strokeWidth=1;rotatable=0;dashed=0;labelPosition=right;align=left;verticalAlign=middle;spacingTop=0;spacingLeft=6;points=[];portConstraint=eastwest;" vertex="1" parent="1">
          <mxGeometry x="-2390" y="2095" width="60" height="10" as="geometry" />
        </mxCell>
        <mxCell id="clVnKKF5C-X62gA4_ED_-54" value="" style="line;strokeWidth=1;rotatable=0;dashed=0;labelPosition=right;align=left;verticalAlign=middle;spacingTop=0;spacingLeft=6;points=[];portConstraint=eastwest;" vertex="1" parent="1">
          <mxGeometry x="-2690" y="2335" width="60" height="10" as="geometry" />
        </mxCell>
        <mxCell id="clVnKKF5C-X62gA4_ED_-55" value="" style="line;strokeWidth=1;rotatable=0;dashed=0;labelPosition=right;align=left;verticalAlign=middle;spacingTop=0;spacingLeft=6;points=[];portConstraint=eastwest;" vertex="1" parent="1">
          <mxGeometry x="-2300" y="2425" width="60" height="10" as="geometry" />
        </mxCell>
        <mxCell id="clVnKKF5C-X62gA4_ED_-56" value="" style="line;strokeWidth=1;rotatable=0;dashed=0;labelPosition=right;align=left;verticalAlign=middle;spacingTop=0;spacingLeft=6;points=[];portConstraint=eastwest;" vertex="1" parent="1">
          <mxGeometry x="-2920" y="2525" width="60" height="10" as="geometry" />
        </mxCell>
        <mxCell id="clVnKKF5C-X62gA4_ED_-57" value="" style="line;strokeWidth=1;rotatable=0;dashed=0;labelPosition=right;align=left;verticalAlign=middle;spacingTop=0;spacingLeft=6;points=[];portConstraint=eastwest;" vertex="1" parent="1">
          <mxGeometry x="-2930" y="2635" width="60" height="10" as="geometry" />
        </mxCell>
        <mxCell id="clVnKKF5C-X62gA4_ED_-58" value="" style="line;strokeWidth=1;rotatable=0;dashed=0;labelPosition=right;align=left;verticalAlign=middle;spacingTop=0;spacingLeft=6;points=[];portConstraint=eastwest;" vertex="1" parent="1">
          <mxGeometry x="-1540" y="2445" width="60" height="10" as="geometry" />
        </mxCell>
        <mxCell id="clVnKKF5C-X62gA4_ED_-59" value="" style="line;strokeWidth=1;rotatable=0;dashed=0;labelPosition=right;align=left;verticalAlign=middle;spacingTop=0;spacingLeft=6;points=[];portConstraint=eastwest;" vertex="1" parent="1">
          <mxGeometry x="-870" y="2125" width="60" height="10" as="geometry" />
        </mxCell>
        <mxCell id="clVnKKF5C-X62gA4_ED_-60" value="" style="line;strokeWidth=1;rotatable=0;dashed=0;labelPosition=right;align=left;verticalAlign=middle;spacingTop=0;spacingLeft=6;points=[];portConstraint=eastwest;" vertex="1" parent="1">
          <mxGeometry x="-960" y="1845" width="60" height="10" as="geometry" />
        </mxCell>
        <mxCell id="clVnKKF5C-X62gA4_ED_-61" value="" style="line;strokeWidth=1;rotatable=0;dashed=0;labelPosition=right;align=left;verticalAlign=middle;spacingTop=0;spacingLeft=6;points=[];portConstraint=eastwest;" vertex="1" parent="1">
          <mxGeometry x="-1960" y="1965" width="60" height="10" as="geometry" />
        </mxCell>
        <mxCell id="clVnKKF5C-X62gA4_ED_-62" value="fk&lt;span style=&quot;caret-color: rgba(0, 0, 0, 0); color: rgba(0, 0, 0, 0); font-family: monospace; font-size: 0px; text-align: start; white-space: nowrap;&quot;&gt;%3CmxGraphModel%3E%3Croot%3E%3CmxCell%20id%3D%220%22%2F%3E%3CmxCell%20id%3D%221%22%20parent%3D%220%22%2F%3E%3CmxCell%20id%3D%222%22%20value%3D%22contentId%22%20style%3D%22whiteSpace%3Dwrap%3Bhtml%3D1%3Balign%3Dcenter%3B%22%20vertex%3D%221%22%20parent%3D%221%22%3E%3CmxGeometry%20x%3D%22-2470%22%20y%3D%221940%22%20width%3D%22100%22%20height%3D%2240%22%20as%3D%22geometry%22%2F%3E%3C%2FmxCell%3E%3C%2Froot%3E%3C%2FmxGraphModel%3E&lt;/span&gt;&lt;span style=&quot;caret-color: rgba(0, 0, 0, 0); color: rgba(0, 0, 0, 0); font-family: monospace; font-size: 0px; text-align: start; white-space: nowrap;&quot;&gt;%3CmxGraphModel%3E%3Croot%3E%3CmxCell%20id%3D%220%22%2F%3E%3CmxCell%20id%3D%221%22%20parent%3D%220%22%2F%3E%3CmxCell%20id%3D%222%22%20value%3D%22contentId%22%20style%3D%22whiteSpace%3Dwrap%3Bhtml%3D1%3Balign%3Dcenter%3B%22%20vertex%3D%221%22%20parent%3D%221%22%3E%3CmxGeometry%20x%3D%22-2470%22%20y%3D%221940%22%20width%3D%22100%22%20height%3D%2240%22%20as%3D%22geometry%22%2F%3E%3C%2FmxCell%3E%3C%2Froot%3E%3C%2FmxGraphModel%3E&lt;/span&gt;&lt;span style=&quot;caret-color: rgba(0, 0, 0, 0); color: rgba(0, 0, 0, 0); font-family: monospace; font-size: 0px; text-align: start; white-space: nowrap;&quot;&gt;%3CmxGraphModel%3E%3Croot%3E%3CmxCell%20id%3D%220%22%2F%3E%3CmxCell%20id%3D%221%22%20parent%3D%220%22%2F%3E%3CmxCell%20id%3D%222%22%20value%3D%22contentId%22%20style%3D%22whiteSpace%3Dwrap%3Bhtml%3D1%3Balign%3Dcenter%3B%22%20vertex%3D%221%22%20parent%3D%221%22%3E%3CmxGeometry%20x%3D%22-2470%22%20y%3D%221940%22%20width%3D%22100%22%20height%3D%2240%22%20as%3D%22geometry%22%2F%3E%3C%2FmxCell%3E%3C%2Froot%3E%3C%2FmxGraphModel%3E&lt;/span&gt;" style="text;html=1;align=center;verticalAlign=middle;whiteSpace=wrap;rounded=0;" vertex="1" parent="1">
          <mxGeometry x="-2620" y="2650" width="60" height="30" as="geometry" />
        </mxCell>
        <mxCell id="clVnKKF5C-X62gA4_ED_-63" value="fk&lt;span style=&quot;caret-color: rgba(0, 0, 0, 0); color: rgba(0, 0, 0, 0); font-family: monospace; font-size: 0px; text-align: start; white-space: nowrap;&quot;&gt;%3CmxGraphModel%3E%3Croot%3E%3CmxCell%20id%3D%220%22%2F%3E%3CmxCell%20id%3D%221%22%20parent%3D%220%22%2F%3E%3CmxCell%20id%3D%222%22%20value%3D%22contentId%22%20style%3D%22whiteSpace%3Dwrap%3Bhtml%3D1%3Balign%3Dcenter%3B%22%20vertex%3D%221%22%20parent%3D%221%22%3E%3CmxGeometry%20x%3D%22-2470%22%20y%3D%221940%22%20width%3D%22100%22%20height%3D%2240%22%20as%3D%22geometry%22%2F%3E%3C%2FmxCell%3E%3C%2Froot%3E%3C%2FmxGraphModel%3E&lt;/span&gt;&lt;span style=&quot;caret-color: rgba(0, 0, 0, 0); color: rgba(0, 0, 0, 0); font-family: monospace; font-size: 0px; text-align: start; white-space: nowrap;&quot;&gt;%3CmxGraphModel%3E%3Croot%3E%3CmxCell%20id%3D%220%22%2F%3E%3CmxCell%20id%3D%221%22%20parent%3D%220%22%2F%3E%3CmxCell%20id%3D%222%22%20value%3D%22contentId%22%20style%3D%22whiteSpace%3Dwrap%3Bhtml%3D1%3Balign%3Dcenter%3B%22%20vertex%3D%221%22%20parent%3D%221%22%3E%3CmxGeometry%20x%3D%22-2470%22%20y%3D%221940%22%20width%3D%22100%22%20height%3D%2240%22%20as%3D%22geometry%22%2F%3E%3C%2FmxCell%3E%3C%2Froot%3E%3C%2FmxGraphModel%3E&lt;/span&gt;&lt;span style=&quot;caret-color: rgba(0, 0, 0, 0); color: rgba(0, 0, 0, 0); font-family: monospace; font-size: 0px; text-align: start; white-space: nowrap;&quot;&gt;%3CmxGraphModel%3E%3Croot%3E%3CmxCell%20id%3D%220%22%2F%3E%3CmxCell%20id%3D%221%22%20parent%3D%220%22%2F%3E%3CmxCell%20id%3D%222%22%20value%3D%22contentId%22%20style%3D%22whiteSpace%3Dwrap%3Bhtml%3D1%3Balign%3Dcenter%3B%22%20vertex%3D%221%22%20parent%3D%221%22%3E%3CmxGeometry%20x%3D%22-2470%22%20y%3D%221940%22%20width%3D%22100%22%20height%3D%2240%22%20as%3D%22geometry%22%2F%3E%3C%2FmxCell%3E%3C%2Froot%3E%3C%2FmxGraphModel%3E&lt;/span&gt;" style="text;html=1;align=center;verticalAlign=middle;whiteSpace=wrap;rounded=0;" vertex="1" parent="1">
          <mxGeometry x="-2620" y="2535" width="60" height="30" as="geometry" />
        </mxCell>
        <mxCell id="clVnKKF5C-X62gA4_ED_-64" value="fk&lt;span style=&quot;caret-color: rgba(0, 0, 0, 0); color: rgba(0, 0, 0, 0); font-family: monospace; font-size: 0px; text-align: start; white-space: nowrap;&quot;&gt;%3CmxGraphModel%3E%3Croot%3E%3CmxCell%20id%3D%220%22%2F%3E%3CmxCell%20id%3D%221%22%20parent%3D%220%22%2F%3E%3CmxCell%20id%3D%222%22%20value%3D%22contentId%22%20style%3D%22whiteSpace%3Dwrap%3Bhtml%3D1%3Balign%3Dcenter%3B%22%20vertex%3D%221%22%20parent%3D%221%22%3E%3CmxGeometry%20x%3D%22-2470%22%20y%3D%221940%22%20width%3D%22100%22%20height%3D%2240%22%20as%3D%22geometry%22%2F%3E%3C%2FmxCell%3E%3C%2Froot%3E%3C%2FmxGraphModel%3E&lt;/span&gt;&lt;span style=&quot;caret-color: rgba(0, 0, 0, 0); color: rgba(0, 0, 0, 0); font-family: monospace; font-size: 0px; text-align: start; white-space: nowrap;&quot;&gt;%3CmxGraphModel%3E%3Croot%3E%3CmxCell%20id%3D%220%22%2F%3E%3CmxCell%20id%3D%221%22%20parent%3D%220%22%2F%3E%3CmxCell%20id%3D%222%22%20value%3D%22contentId%22%20style%3D%22whiteSpace%3Dwrap%3Bhtml%3D1%3Balign%3Dcenter%3B%22%20vertex%3D%221%22%20parent%3D%221%22%3E%3CmxGeometry%20x%3D%22-2470%22%20y%3D%221940%22%20width%3D%22100%22%20height%3D%2240%22%20as%3D%22geometry%22%2F%3E%3C%2FmxCell%3E%3C%2Froot%3E%3C%2FmxGraphModel%3E&lt;/span&gt;&lt;span style=&quot;caret-color: rgba(0, 0, 0, 0); color: rgba(0, 0, 0, 0); font-family: monospace; font-size: 0px; text-align: start; white-space: nowrap;&quot;&gt;%3CmxGraphModel%3E%3Croot%3E%3CmxCell%20id%3D%220%22%2F%3E%3CmxCell%20id%3D%221%22%20parent%3D%220%22%2F%3E%3CmxCell%20id%3D%222%22%20value%3D%22contentId%22%20style%3D%22whiteSpace%3Dwrap%3Bhtml%3D1%3Balign%3Dcenter%3B%22%20vertex%3D%221%22%20parent%3D%221%22%3E%3CmxGeometry%20x%3D%22-2470%22%20y%3D%221940%22%20width%3D%22100%22%20height%3D%2240%22%20as%3D%22geometry%22%2F%3E%3C%2FmxCell%3E%3C%2Froot%3E%3C%2FmxGraphModel%3E&lt;/span&gt;" style="text;html=1;align=center;verticalAlign=middle;whiteSpace=wrap;rounded=0;" vertex="1" parent="1">
          <mxGeometry x="-1900" y="2435" width="60" height="30" as="geometry" />
        </mxCell>
        <mxCell id="clVnKKF5C-X62gA4_ED_-65" value="fk&lt;span style=&quot;caret-color: rgba(0, 0, 0, 0); color: rgba(0, 0, 0, 0); font-family: monospace; font-size: 0px; text-align: start; white-space: nowrap;&quot;&gt;%3CmxGraphModel%3E%3Croot%3E%3CmxCell%20id%3D%220%22%2F%3E%3CmxCell%20id%3D%221%22%20parent%3D%220%22%2F%3E%3CmxCell%20id%3D%222%22%20value%3D%22contentId%22%20style%3D%22whiteSpace%3Dwrap%3Bhtml%3D1%3Balign%3Dcenter%3B%22%20vertex%3D%221%22%20parent%3D%221%22%3E%3CmxGeometry%20x%3D%22-2470%22%20y%3D%221940%22%20width%3D%22100%22%20height%3D%2240%22%20as%3D%22geometry%22%2F%3E%3C%2FmxCell%3E%3C%2Froot%3E%3C%2FmxGraphModel%3E&lt;/span&gt;&lt;span style=&quot;caret-color: rgba(0, 0, 0, 0); color: rgba(0, 0, 0, 0); font-family: monospace; font-size: 0px; text-align: start; white-space: nowrap;&quot;&gt;%3CmxGraphModel%3E%3Croot%3E%3CmxCell%20id%3D%220%22%2F%3E%3CmxCell%20id%3D%221%22%20parent%3D%220%22%2F%3E%3CmxCell%20id%3D%222%22%20value%3D%22contentId%22%20style%3D%22whiteSpace%3Dwrap%3Bhtml%3D1%3Balign%3Dcenter%3B%22%20vertex%3D%221%22%20parent%3D%221%22%3E%3CmxGeometry%20x%3D%22-2470%22%20y%3D%221940%22%20width%3D%22100%22%20height%3D%2240%22%20as%3D%22geometry%22%2F%3E%3C%2FmxCell%3E%3C%2Froot%3E%3C%2FmxGraphModel%3E&lt;/span&gt;&lt;span style=&quot;caret-color: rgba(0, 0, 0, 0); color: rgba(0, 0, 0, 0); font-family: monospace; font-size: 0px; text-align: start; white-space: nowrap;&quot;&gt;%3CmxGraphModel%3E%3Croot%3E%3CmxCell%20id%3D%220%22%2F%3E%3CmxCell%20id%3D%221%22%20parent%3D%220%22%2F%3E%3CmxCell%20id%3D%222%22%20value%3D%22contentId%22%20style%3D%22whiteSpace%3Dwrap%3Bhtml%3D1%3Balign%3Dcenter%3B%22%20vertex%3D%221%22%20parent%3D%221%22%3E%3CmxGeometry%20x%3D%22-2470%22%20y%3D%221940%22%20width%3D%22100%22%20height%3D%2240%22%20as%3D%22geometry%22%2F%3E%3C%2FmxCell%3E%3C%2Froot%3E%3C%2FmxGraphModel%3E&lt;/span&gt;" style="text;html=1;align=center;verticalAlign=middle;whiteSpace=wrap;rounded=0;" vertex="1" parent="1">
          <mxGeometry x="-2210" y="2235" width="60" height="30" as="geometry" />
        </mxCell>
        <mxCell id="clVnKKF5C-X62gA4_ED_-66" value="fk&lt;span style=&quot;caret-color: rgba(0, 0, 0, 0); color: rgba(0, 0, 0, 0); font-family: monospace; font-size: 0px; text-align: start; white-space: nowrap;&quot;&gt;%3CmxGraphModel%3E%3Croot%3E%3CmxCell%20id%3D%220%22%2F%3E%3CmxCell%20id%3D%221%22%20parent%3D%220%22%2F%3E%3CmxCell%20id%3D%222%22%20value%3D%22contentId%22%20style%3D%22whiteSpace%3Dwrap%3Bhtml%3D1%3Balign%3Dcenter%3B%22%20vertex%3D%221%22%20parent%3D%221%22%3E%3CmxGeometry%20x%3D%22-2470%22%20y%3D%221940%22%20width%3D%22100%22%20height%3D%2240%22%20as%3D%22geometry%22%2F%3E%3C%2FmxCell%3E%3C%2Froot%3E%3C%2FmxGraphModel%3E&lt;/span&gt;&lt;span style=&quot;caret-color: rgba(0, 0, 0, 0); color: rgba(0, 0, 0, 0); font-family: monospace; font-size: 0px; text-align: start; white-space: nowrap;&quot;&gt;%3CmxGraphModel%3E%3Croot%3E%3CmxCell%20id%3D%220%22%2F%3E%3CmxCell%20id%3D%221%22%20parent%3D%220%22%2F%3E%3CmxCell%20id%3D%222%22%20value%3D%22contentId%22%20style%3D%22whiteSpace%3Dwrap%3Bhtml%3D1%3Balign%3Dcenter%3B%22%20vertex%3D%221%22%20parent%3D%221%22%3E%3CmxGeometry%20x%3D%22-2470%22%20y%3D%221940%22%20width%3D%22100%22%20height%3D%2240%22%20as%3D%22geometry%22%2F%3E%3C%2FmxCell%3E%3C%2Froot%3E%3C%2FmxGraphModel%3E&lt;/span&gt;&lt;span style=&quot;caret-color: rgba(0, 0, 0, 0); color: rgba(0, 0, 0, 0); font-family: monospace; font-size: 0px; text-align: start; white-space: nowrap;&quot;&gt;%3CmxGraphModel%3E%3Croot%3E%3CmxCell%20id%3D%220%22%2F%3E%3CmxCell%20id%3D%221%22%20parent%3D%220%22%2F%3E%3CmxCell%20id%3D%222%22%20value%3D%22contentId%22%20style%3D%22whiteSpace%3Dwrap%3Bhtml%3D1%3Balign%3Dcenter%3B%22%20vertex%3D%221%22%20parent%3D%221%22%3E%3CmxGeometry%20x%3D%22-2470%22%20y%3D%221940%22%20width%3D%22100%22%20height%3D%2240%22%20as%3D%22geometry%22%2F%3E%3C%2FmxCell%3E%3C%2Froot%3E%3C%2FmxGraphModel%3E&lt;/span&gt;" style="text;html=1;align=center;verticalAlign=middle;whiteSpace=wrap;rounded=0;" vertex="1" parent="1">
          <mxGeometry x="-2310" y="2235" width="60" height="30" as="geometry" />
        </mxCell>
        <mxCell id="clVnKKF5C-X62gA4_ED_-67" value="fk&lt;span style=&quot;caret-color: rgba(0, 0, 0, 0); color: rgba(0, 0, 0, 0); font-family: monospace; font-size: 0px; text-align: start; white-space: nowrap;&quot;&gt;%3CmxGraphModel%3E%3Croot%3E%3CmxCell%20id%3D%220%22%2F%3E%3CmxCell%20id%3D%221%22%20parent%3D%220%22%2F%3E%3CmxCell%20id%3D%222%22%20value%3D%22contentId%22%20style%3D%22whiteSpace%3Dwrap%3Bhtml%3D1%3Balign%3Dcenter%3B%22%20vertex%3D%221%22%20parent%3D%221%22%3E%3CmxGeometry%20x%3D%22-2470%22%20y%3D%221940%22%20width%3D%22100%22%20height%3D%2240%22%20as%3D%22geometry%22%2F%3E%3C%2FmxCell%3E%3C%2Froot%3E%3C%2FmxGraphModel%3E&lt;/span&gt;&lt;span style=&quot;caret-color: rgba(0, 0, 0, 0); color: rgba(0, 0, 0, 0); font-family: monospace; font-size: 0px; text-align: start; white-space: nowrap;&quot;&gt;%3CmxGraphModel%3E%3Croot%3E%3CmxCell%20id%3D%220%22%2F%3E%3CmxCell%20id%3D%221%22%20parent%3D%220%22%2F%3E%3CmxCell%20id%3D%222%22%20value%3D%22contentId%22%20style%3D%22whiteSpace%3Dwrap%3Bhtml%3D1%3Balign%3Dcenter%3B%22%20vertex%3D%221%22%20parent%3D%221%22%3E%3CmxGeometry%20x%3D%22-2470%22%20y%3D%221940%22%20width%3D%22100%22%20height%3D%2240%22%20as%3D%22geometry%22%2F%3E%3C%2FmxCell%3E%3C%2Froot%3E%3C%2FmxGraphModel%3E&lt;/span&gt;&lt;span style=&quot;caret-color: rgba(0, 0, 0, 0); color: rgba(0, 0, 0, 0); font-family: monospace; font-size: 0px; text-align: start; white-space: nowrap;&quot;&gt;%3CmxGraphModel%3E%3Croot%3E%3CmxCell%20id%3D%220%22%2F%3E%3CmxCell%20id%3D%221%22%20parent%3D%220%22%2F%3E%3CmxCell%20id%3D%222%22%20value%3D%22contentId%22%20style%3D%22whiteSpace%3Dwrap%3Bhtml%3D1%3Balign%3Dcenter%3B%22%20vertex%3D%221%22%20parent%3D%221%22%3E%3CmxGeometry%20x%3D%22-2470%22%20y%3D%221940%22%20width%3D%22100%22%20height%3D%2240%22%20as%3D%22geometry%22%2F%3E%3C%2FmxCell%3E%3C%2Froot%3E%3C%2FmxGraphModel%3E&lt;/span&gt;" style="text;html=1;align=center;verticalAlign=middle;whiteSpace=wrap;rounded=0;" vertex="1" parent="1">
          <mxGeometry x="-2450" y="1975" width="60" height="30" as="geometry" />
        </mxCell>
        <mxCell id="clVnKKF5C-X62gA4_ED_-68" value="fk&lt;span style=&quot;caret-color: rgba(0, 0, 0, 0); color: rgba(0, 0, 0, 0); font-family: monospace; font-size: 0px; text-align: start; white-space: nowrap;&quot;&gt;%3CmxGraphModel%3E%3Croot%3E%3CmxCell%20id%3D%220%22%2F%3E%3CmxCell%20id%3D%221%22%20parent%3D%220%22%2F%3E%3CmxCell%20id%3D%222%22%20value%3D%22contentId%22%20style%3D%22whiteSpace%3Dwrap%3Bhtml%3D1%3Balign%3Dcenter%3B%22%20vertex%3D%221%22%20parent%3D%221%22%3E%3CmxGeometry%20x%3D%22-2470%22%20y%3D%221940%22%20width%3D%22100%22%20height%3D%2240%22%20as%3D%22geometry%22%2F%3E%3C%2FmxCell%3E%3C%2Froot%3E%3C%2FmxGraphModel%3E&lt;/span&gt;&lt;span style=&quot;caret-color: rgba(0, 0, 0, 0); color: rgba(0, 0, 0, 0); font-family: monospace; font-size: 0px; text-align: start; white-space: nowrap;&quot;&gt;%3CmxGraphModel%3E%3Croot%3E%3CmxCell%20id%3D%220%22%2F%3E%3CmxCell%20id%3D%221%22%20parent%3D%220%22%2F%3E%3CmxCell%20id%3D%222%22%20value%3D%22contentId%22%20style%3D%22whiteSpace%3Dwrap%3Bhtml%3D1%3Balign%3Dcenter%3B%22%20vertex%3D%221%22%20parent%3D%221%22%3E%3CmxGeometry%20x%3D%22-2470%22%20y%3D%221940%22%20width%3D%22100%22%20height%3D%2240%22%20as%3D%22geometry%22%2F%3E%3C%2FmxCell%3E%3C%2Froot%3E%3C%2FmxGraphModel%3E&lt;/span&gt;&lt;span style=&quot;caret-color: rgba(0, 0, 0, 0); color: rgba(0, 0, 0, 0); font-family: monospace; font-size: 0px; text-align: start; white-space: nowrap;&quot;&gt;%3CmxGraphModel%3E%3Croot%3E%3CmxCell%20id%3D%220%22%2F%3E%3CmxCell%20id%3D%221%22%20parent%3D%220%22%2F%3E%3CmxCell%20id%3D%222%22%20value%3D%22contentId%22%20style%3D%22whiteSpace%3Dwrap%3Bhtml%3D1%3Balign%3Dcenter%3B%22%20vertex%3D%221%22%20parent%3D%221%22%3E%3CmxGeometry%20x%3D%22-2470%22%20y%3D%221940%22%20width%3D%22100%22%20height%3D%2240%22%20as%3D%22geometry%22%2F%3E%3C%2FmxCell%3E%3C%2Froot%3E%3C%2FmxGraphModel%3E&lt;/span&gt;" style="text;html=1;align=center;verticalAlign=middle;whiteSpace=wrap;rounded=0;" vertex="1" parent="1">
          <mxGeometry x="-1760" y="1975" width="60" height="30" as="geometry" />
        </mxCell>
        <mxCell id="clVnKKF5C-X62gA4_ED_-69" value="fk&lt;span style=&quot;caret-color: rgba(0, 0, 0, 0); color: rgba(0, 0, 0, 0); font-family: monospace; font-size: 0px; text-align: start; white-space: nowrap;&quot;&gt;%3CmxGraphModel%3E%3Croot%3E%3CmxCell%20id%3D%220%22%2F%3E%3CmxCell%20id%3D%221%22%20parent%3D%220%22%2F%3E%3CmxCell%20id%3D%222%22%20value%3D%22contentId%22%20style%3D%22whiteSpace%3Dwrap%3Bhtml%3D1%3Balign%3Dcenter%3B%22%20vertex%3D%221%22%20parent%3D%221%22%3E%3CmxGeometry%20x%3D%22-2470%22%20y%3D%221940%22%20width%3D%22100%22%20height%3D%2240%22%20as%3D%22geometry%22%2F%3E%3C%2FmxCell%3E%3C%2Froot%3E%3C%2FmxGraphModel%3E&lt;/span&gt;&lt;span style=&quot;caret-color: rgba(0, 0, 0, 0); color: rgba(0, 0, 0, 0); font-family: monospace; font-size: 0px; text-align: start; white-space: nowrap;&quot;&gt;%3CmxGraphModel%3E%3Croot%3E%3CmxCell%20id%3D%220%22%2F%3E%3CmxCell%20id%3D%221%22%20parent%3D%220%22%2F%3E%3CmxCell%20id%3D%222%22%20value%3D%22contentId%22%20style%3D%22whiteSpace%3Dwrap%3Bhtml%3D1%3Balign%3Dcenter%3B%22%20vertex%3D%221%22%20parent%3D%221%22%3E%3CmxGeometry%20x%3D%22-2470%22%20y%3D%221940%22%20width%3D%22100%22%20height%3D%2240%22%20as%3D%22geometry%22%2F%3E%3C%2FmxCell%3E%3C%2Froot%3E%3C%2FmxGraphModel%3E&lt;/span&gt;&lt;span style=&quot;caret-color: rgba(0, 0, 0, 0); color: rgba(0, 0, 0, 0); font-family: monospace; font-size: 0px; text-align: start; white-space: nowrap;&quot;&gt;%3CmxGraphModel%3E%3Croot%3E%3CmxCell%20id%3D%220%22%2F%3E%3CmxCell%20id%3D%221%22%20parent%3D%220%22%2F%3E%3CmxCell%20id%3D%222%22%20value%3D%22contentId%22%20style%3D%22whiteSpace%3Dwrap%3Bhtml%3D1%3Balign%3Dcenter%3B%22%20vertex%3D%221%22%20parent%3D%221%22%3E%3CmxGeometry%20x%3D%22-2470%22%20y%3D%221940%22%20width%3D%22100%22%20height%3D%2240%22%20as%3D%22geometry%22%2F%3E%3C%2FmxCell%3E%3C%2Froot%3E%3C%2FmxGraphModel%3E&lt;/span&gt;" style="text;html=1;align=center;verticalAlign=middle;whiteSpace=wrap;rounded=0;" vertex="1" parent="1">
          <mxGeometry x="-980" y="1975" width="60" height="30" as="geometry" />
        </mxCell>
        <mxCell id="clVnKKF5C-X62gA4_ED_-70" value="fk&lt;span style=&quot;caret-color: rgba(0, 0, 0, 0); color: rgba(0, 0, 0, 0); font-family: monospace; font-size: 0px; text-align: start; white-space: nowrap;&quot;&gt;%3CmxGraphModel%3E%3Croot%3E%3CmxCell%20id%3D%220%22%2F%3E%3CmxCell%20id%3D%221%22%20parent%3D%220%22%2F%3E%3CmxCell%20id%3D%222%22%20value%3D%22contentId%22%20style%3D%22whiteSpace%3Dwrap%3Bhtml%3D1%3Balign%3Dcenter%3B%22%20vertex%3D%221%22%20parent%3D%221%22%3E%3CmxGeometry%20x%3D%22-2470%22%20y%3D%221940%22%20width%3D%22100%22%20height%3D%2240%22%20as%3D%22geometry%22%2F%3E%3C%2FmxCell%3E%3C%2Froot%3E%3C%2FmxGraphModel%3E&lt;/span&gt;&lt;span style=&quot;caret-color: rgba(0, 0, 0, 0); color: rgba(0, 0, 0, 0); font-family: monospace; font-size: 0px; text-align: start; white-space: nowrap;&quot;&gt;%3CmxGraphModel%3E%3Croot%3E%3CmxCell%20id%3D%220%22%2F%3E%3CmxCell%20id%3D%221%22%20parent%3D%220%22%2F%3E%3CmxCell%20id%3D%222%22%20value%3D%22contentId%22%20style%3D%22whiteSpace%3Dwrap%3Bhtml%3D1%3Balign%3Dcenter%3B%22%20vertex%3D%221%22%20parent%3D%221%22%3E%3CmxGeometry%20x%3D%22-2470%22%20y%3D%221940%22%20width%3D%22100%22%20height%3D%2240%22%20as%3D%22geometry%22%2F%3E%3C%2FmxCell%3E%3C%2Froot%3E%3C%2FmxGraphModel%3E&lt;/span&gt;&lt;span style=&quot;caret-color: rgba(0, 0, 0, 0); color: rgba(0, 0, 0, 0); font-family: monospace; font-size: 0px; text-align: start; white-space: nowrap;&quot;&gt;%3CmxGraphModel%3E%3Croot%3E%3CmxCell%20id%3D%220%22%2F%3E%3CmxCell%20id%3D%221%22%20parent%3D%220%22%2F%3E%3CmxCell%20id%3D%222%22%20value%3D%22contentId%22%20style%3D%22whiteSpace%3Dwrap%3Bhtml%3D1%3Balign%3Dcenter%3B%22%20vertex%3D%221%22%20parent%3D%221%22%3E%3CmxGeometry%20x%3D%22-2470%22%20y%3D%221940%22%20width%3D%22100%22%20height%3D%2240%22%20as%3D%22geometry%22%2F%3E%3C%2FmxCell%3E%3C%2Froot%3E%3C%2FmxGraphModel%3E&lt;/span&gt;" style="text;html=1;align=center;verticalAlign=middle;whiteSpace=wrap;rounded=0;" vertex="1" parent="1">
          <mxGeometry x="-1080" y="1970" width="60" height="30" as="geometry" />
        </mxCell>
        <mxCell id="clVnKKF5C-X62gA4_ED_-71" value="fk&lt;span style=&quot;caret-color: rgba(0, 0, 0, 0); color: rgba(0, 0, 0, 0); font-family: monospace; font-size: 0px; text-align: start; white-space: nowrap;&quot;&gt;%3CmxGraphModel%3E%3Croot%3E%3CmxCell%20id%3D%220%22%2F%3E%3CmxCell%20id%3D%221%22%20parent%3D%220%22%2F%3E%3CmxCell%20id%3D%222%22%20value%3D%22contentId%22%20style%3D%22whiteSpace%3Dwrap%3Bhtml%3D1%3Balign%3Dcenter%3B%22%20vertex%3D%221%22%20parent%3D%221%22%3E%3CmxGeometry%20x%3D%22-2470%22%20y%3D%221940%22%20width%3D%22100%22%20height%3D%2240%22%20as%3D%22geometry%22%2F%3E%3C%2FmxCell%3E%3C%2Froot%3E%3C%2FmxGraphModel%3E&lt;/span&gt;&lt;span style=&quot;caret-color: rgba(0, 0, 0, 0); color: rgba(0, 0, 0, 0); font-family: monospace; font-size: 0px; text-align: start; white-space: nowrap;&quot;&gt;%3CmxGraphModel%3E%3Croot%3E%3CmxCell%20id%3D%220%22%2F%3E%3CmxCell%20id%3D%221%22%20parent%3D%220%22%2F%3E%3CmxCell%20id%3D%222%22%20value%3D%22contentId%22%20style%3D%22whiteSpace%3Dwrap%3Bhtml%3D1%3Balign%3Dcenter%3B%22%20vertex%3D%221%22%20parent%3D%221%22%3E%3CmxGeometry%20x%3D%22-2470%22%20y%3D%221940%22%20width%3D%22100%22%20height%3D%2240%22%20as%3D%22geometry%22%2F%3E%3C%2FmxCell%3E%3C%2Froot%3E%3C%2FmxGraphModel%3E&lt;/span&gt;&lt;span style=&quot;caret-color: rgba(0, 0, 0, 0); color: rgba(0, 0, 0, 0); font-family: monospace; font-size: 0px; text-align: start; white-space: nowrap;&quot;&gt;%3CmxGraphModel%3E%3Croot%3E%3CmxCell%20id%3D%220%22%2F%3E%3CmxCell%20id%3D%221%22%20parent%3D%220%22%2F%3E%3CmxCell%20id%3D%222%22%20value%3D%22contentId%22%20style%3D%22whiteSpace%3Dwrap%3Bhtml%3D1%3Balign%3Dcenter%3B%22%20vertex%3D%221%22%20parent%3D%221%22%3E%3CmxGeometry%20x%3D%22-2470%22%20y%3D%221940%22%20width%3D%22100%22%20height%3D%2240%22%20as%3D%22geometry%22%2F%3E%3C%2FmxCell%3E%3C%2Froot%3E%3C%2FmxGraphModel%3E&lt;/span&gt;" style="text;html=1;align=center;verticalAlign=middle;whiteSpace=wrap;rounded=0;" vertex="1" parent="1">
          <mxGeometry x="-1710" y="2265" width="60" height="30" as="geometry" />
        </mxCell>
        <mxCell id="clVnKKF5C-X62gA4_ED_-72" value="fk&lt;span style=&quot;caret-color: rgba(0, 0, 0, 0); color: rgba(0, 0, 0, 0); font-family: monospace; font-size: 0px; text-align: start; white-space: nowrap;&quot;&gt;%3CmxGraphModel%3E%3Croot%3E%3CmxCell%20id%3D%220%22%2F%3E%3CmxCell%20id%3D%221%22%20parent%3D%220%22%2F%3E%3CmxCell%20id%3D%222%22%20value%3D%22contentId%22%20style%3D%22whiteSpace%3Dwrap%3Bhtml%3D1%3Balign%3Dcenter%3B%22%20vertex%3D%221%22%20parent%3D%221%22%3E%3CmxGeometry%20x%3D%22-2470%22%20y%3D%221940%22%20width%3D%22100%22%20height%3D%2240%22%20as%3D%22geometry%22%2F%3E%3C%2FmxCell%3E%3C%2Froot%3E%3C%2FmxGraphModel%3E&lt;/span&gt;&lt;span style=&quot;caret-color: rgba(0, 0, 0, 0); color: rgba(0, 0, 0, 0); font-family: monospace; font-size: 0px; text-align: start; white-space: nowrap;&quot;&gt;%3CmxGraphModel%3E%3Croot%3E%3CmxCell%20id%3D%220%22%2F%3E%3CmxCell%20id%3D%221%22%20parent%3D%220%22%2F%3E%3CmxCell%20id%3D%222%22%20value%3D%22contentId%22%20style%3D%22whiteSpace%3Dwrap%3Bhtml%3D1%3Balign%3Dcenter%3B%22%20vertex%3D%221%22%20parent%3D%221%22%3E%3CmxGeometry%20x%3D%22-2470%22%20y%3D%221940%22%20width%3D%22100%22%20height%3D%2240%22%20as%3D%22geometry%22%2F%3E%3C%2FmxCell%3E%3C%2Froot%3E%3C%2FmxGraphModel%3E&lt;/span&gt;&lt;span style=&quot;caret-color: rgba(0, 0, 0, 0); color: rgba(0, 0, 0, 0); font-family: monospace; font-size: 0px; text-align: start; white-space: nowrap;&quot;&gt;%3CmxGraphModel%3E%3Croot%3E%3CmxCell%20id%3D%220%22%2F%3E%3CmxCell%20id%3D%221%22%20parent%3D%220%22%2F%3E%3CmxCell%20id%3D%222%22%20value%3D%22contentId%22%20style%3D%22whiteSpace%3Dwrap%3Bhtml%3D1%3Balign%3Dcenter%3B%22%20vertex%3D%221%22%20parent%3D%221%22%3E%3CmxGeometry%20x%3D%22-2470%22%20y%3D%221940%22%20width%3D%22100%22%20height%3D%2240%22%20as%3D%22geometry%22%2F%3E%3C%2FmxCell%3E%3C%2Froot%3E%3C%2FmxGraphModel%3E&lt;/span&gt;" style="text;html=1;align=center;verticalAlign=middle;whiteSpace=wrap;rounded=0;" vertex="1" parent="1">
          <mxGeometry x="-1830" y="2265" width="60" height="30" as="geometry" />
        </mxCell>
        <mxCell id="clVnKKF5C-X62gA4_ED_-73" value="fk&lt;span style=&quot;caret-color: rgba(0, 0, 0, 0); color: rgba(0, 0, 0, 0); font-family: monospace; font-size: 0px; text-align: start; white-space: nowrap;&quot;&gt;%3CmxGraphModel%3E%3Croot%3E%3CmxCell%20id%3D%220%22%2F%3E%3CmxCell%20id%3D%221%22%20parent%3D%220%22%2F%3E%3CmxCell%20id%3D%222%22%20value%3D%22contentId%22%20style%3D%22whiteSpace%3Dwrap%3Bhtml%3D1%3Balign%3Dcenter%3B%22%20vertex%3D%221%22%20parent%3D%221%22%3E%3CmxGeometry%20x%3D%22-2470%22%20y%3D%221940%22%20width%3D%22100%22%20height%3D%2240%22%20as%3D%22geometry%22%2F%3E%3C%2FmxCell%3E%3C%2Froot%3E%3C%2FmxGraphModel%3E&lt;/span&gt;&lt;span style=&quot;caret-color: rgba(0, 0, 0, 0); color: rgba(0, 0, 0, 0); font-family: monospace; font-size: 0px; text-align: start; white-space: nowrap;&quot;&gt;%3CmxGraphModel%3E%3Croot%3E%3CmxCell%20id%3D%220%22%2F%3E%3CmxCell%20id%3D%221%22%20parent%3D%220%22%2F%3E%3CmxCell%20id%3D%222%22%20value%3D%22contentId%22%20style%3D%22whiteSpace%3Dwrap%3Bhtml%3D1%3Balign%3Dcenter%3B%22%20vertex%3D%221%22%20parent%3D%221%22%3E%3CmxGeometry%20x%3D%22-2470%22%20y%3D%221940%22%20width%3D%22100%22%20height%3D%2240%22%20as%3D%22geometry%22%2F%3E%3C%2FmxCell%3E%3C%2Froot%3E%3C%2FmxGraphModel%3E&lt;/span&gt;&lt;span style=&quot;caret-color: rgba(0, 0, 0, 0); color: rgba(0, 0, 0, 0); font-family: monospace; font-size: 0px; text-align: start; white-space: nowrap;&quot;&gt;%3CmxGraphModel%3E%3Croot%3E%3CmxCell%20id%3D%220%22%2F%3E%3CmxCell%20id%3D%221%22%20parent%3D%220%22%2F%3E%3CmxCell%20id%3D%222%22%20value%3D%22contentId%22%20style%3D%22whiteSpace%3Dwrap%3Bhtml%3D1%3Balign%3Dcenter%3B%22%20vertex%3D%221%22%20parent%3D%221%22%3E%3CmxGeometry%20x%3D%22-2470%22%20y%3D%221940%22%20width%3D%22100%22%20height%3D%2240%22%20as%3D%22geometry%22%2F%3E%3C%2FmxCell%3E%3C%2Froot%3E%3C%2FmxGraphModel%3E&lt;/span&gt;" style="text;html=1;align=center;verticalAlign=middle;whiteSpace=wrap;rounded=0;" vertex="1" parent="1">
          <mxGeometry x="-740" y="2305" width="60" height="30" as="geometry" />
        </mxCell>
        <mxCell id="clVnKKF5C-X62gA4_ED_-74" value="fk&lt;span style=&quot;caret-color: rgba(0, 0, 0, 0); color: rgba(0, 0, 0, 0); font-family: monospace; font-size: 0px; text-align: start; white-space: nowrap;&quot;&gt;%3CmxGraphModel%3E%3Croot%3E%3CmxCell%20id%3D%220%22%2F%3E%3CmxCell%20id%3D%221%22%20parent%3D%220%22%2F%3E%3CmxCell%20id%3D%222%22%20value%3D%22contentId%22%20style%3D%22whiteSpace%3Dwrap%3Bhtml%3D1%3Balign%3Dcenter%3B%22%20vertex%3D%221%22%20parent%3D%221%22%3E%3CmxGeometry%20x%3D%22-2470%22%20y%3D%221940%22%20width%3D%22100%22%20height%3D%2240%22%20as%3D%22geometry%22%2F%3E%3C%2FmxCell%3E%3C%2Froot%3E%3C%2FmxGraphModel%3E&lt;/span&gt;&lt;span style=&quot;caret-color: rgba(0, 0, 0, 0); color: rgba(0, 0, 0, 0); font-family: monospace; font-size: 0px; text-align: start; white-space: nowrap;&quot;&gt;%3CmxGraphModel%3E%3Croot%3E%3CmxCell%20id%3D%220%22%2F%3E%3CmxCell%20id%3D%221%22%20parent%3D%220%22%2F%3E%3CmxCell%20id%3D%222%22%20value%3D%22contentId%22%20style%3D%22whiteSpace%3Dwrap%3Bhtml%3D1%3Balign%3Dcenter%3B%22%20vertex%3D%221%22%20parent%3D%221%22%3E%3CmxGeometry%20x%3D%22-2470%22%20y%3D%221940%22%20width%3D%22100%22%20height%3D%2240%22%20as%3D%22geometry%22%2F%3E%3C%2FmxCell%3E%3C%2Froot%3E%3C%2FmxGraphModel%3E&lt;/span&gt;&lt;span style=&quot;caret-color: rgba(0, 0, 0, 0); color: rgba(0, 0, 0, 0); font-family: monospace; font-size: 0px; text-align: start; white-space: nowrap;&quot;&gt;%3CmxGraphModel%3E%3Croot%3E%3CmxCell%20id%3D%220%22%2F%3E%3CmxCell%20id%3D%221%22%20parent%3D%220%22%2F%3E%3CmxCell%20id%3D%222%22%20value%3D%22contentId%22%20style%3D%22whiteSpace%3Dwrap%3Bhtml%3D1%3Balign%3Dcenter%3B%22%20vertex%3D%221%22%20parent%3D%221%22%3E%3CmxGeometry%20x%3D%22-2470%22%20y%3D%221940%22%20width%3D%22100%22%20height%3D%2240%22%20as%3D%22geometry%22%2F%3E%3C%2FmxCell%3E%3C%2Froot%3E%3C%2FmxGraphModel%3E&lt;/span&gt;" style="text;html=1;align=center;verticalAlign=middle;whiteSpace=wrap;rounded=0;" vertex="1" parent="1">
          <mxGeometry x="-840" y="2310" width="60" height="30" as="geometry" />
        </mxCell>
        <mxCell id="clVnKKF5C-X62gA4_ED_-75" value="fk&lt;span style=&quot;caret-color: rgba(0, 0, 0, 0); color: rgba(0, 0, 0, 0); font-family: monospace; font-size: 0px; text-align: start; white-space: nowrap;&quot;&gt;%3CmxGraphModel%3E%3Croot%3E%3CmxCell%20id%3D%220%22%2F%3E%3CmxCell%20id%3D%221%22%20parent%3D%220%22%2F%3E%3CmxCell%20id%3D%222%22%20value%3D%22contentId%22%20style%3D%22whiteSpace%3Dwrap%3Bhtml%3D1%3Balign%3Dcenter%3B%22%20vertex%3D%221%22%20parent%3D%221%22%3E%3CmxGeometry%20x%3D%22-2470%22%20y%3D%221940%22%20width%3D%22100%22%20height%3D%2240%22%20as%3D%22geometry%22%2F%3E%3C%2FmxCell%3E%3C%2Froot%3E%3C%2FmxGraphModel%3E&lt;/span&gt;&lt;span style=&quot;caret-color: rgba(0, 0, 0, 0); color: rgba(0, 0, 0, 0); font-family: monospace; font-size: 0px; text-align: start; white-space: nowrap;&quot;&gt;%3CmxGraphModel%3E%3Croot%3E%3CmxCell%20id%3D%220%22%2F%3E%3CmxCell%20id%3D%221%22%20parent%3D%220%22%2F%3E%3CmxCell%20id%3D%222%22%20value%3D%22contentId%22%20style%3D%22whiteSpace%3Dwrap%3Bhtml%3D1%3Balign%3Dcenter%3B%22%20vertex%3D%221%22%20parent%3D%221%22%3E%3CmxGeometry%20x%3D%22-2470%22%20y%3D%221940%22%20width%3D%22100%22%20height%3D%2240%22%20as%3D%22geometry%22%2F%3E%3C%2FmxCell%3E%3C%2Froot%3E%3C%2FmxGraphModel%3E&lt;/span&gt;&lt;span style=&quot;caret-color: rgba(0, 0, 0, 0); color: rgba(0, 0, 0, 0); font-family: monospace; font-size: 0px; text-align: start; white-space: nowrap;&quot;&gt;%3CmxGraphModel%3E%3Croot%3E%3CmxCell%20id%3D%220%22%2F%3E%3CmxCell%20id%3D%221%22%20parent%3D%220%22%2F%3E%3CmxCell%20id%3D%222%22%20value%3D%22contentId%22%20style%3D%22whiteSpace%3Dwrap%3Bhtml%3D1%3Balign%3Dcenter%3B%22%20vertex%3D%221%22%20parent%3D%221%22%3E%3CmxGeometry%20x%3D%22-2470%22%20y%3D%221940%22%20width%3D%22100%22%20height%3D%2240%22%20as%3D%22geometry%22%2F%3E%3C%2FmxCell%3E%3C%2Froot%3E%3C%2FmxGraphModel%3E&lt;/span&gt;" style="text;html=1;align=center;verticalAlign=middle;whiteSpace=wrap;rounded=0;" vertex="1" parent="1">
          <mxGeometry x="-1150" y="2455" width="60" height="30" as="geometry" />
        </mxCell>
        <mxCell id="clVnKKF5C-X62gA4_ED_-76" value="Relationship" style="shape=rhombus;perimeter=rhombusPerimeter;whiteSpace=wrap;html=1;align=center;" vertex="1" parent="1">
          <mxGeometry x="-920" y="810" width="120" height="60" as="geometry" />
        </mxCell>
        <mxCell id="clVnKKF5C-X62gA4_ED_-77" value="" style="endArrow=none;html=1;rounded=0;exitX=0.5;exitY=0;exitDx=0;exitDy=0;entryX=0.1;entryY=1.067;entryDx=0;entryDy=0;entryPerimeter=0;" edge="1" parent="1" source="clVnKKF5C-X62gA4_ED_-76" target="9tpbVCxZHUeH7UBsNVS_-103">
          <mxGeometry relative="1" as="geometry">
            <mxPoint x="-900" y="910" as="sourcePoint" />
            <mxPoint x="-740" y="910" as="targetPoint" />
            <Array as="points">
              <mxPoint x="-820" y="650" />
            </Array>
          </mxGeometry>
        </mxCell>
        <mxCell id="clVnKKF5C-X62gA4_ED_-78" value="N" style="resizable=0;html=1;whiteSpace=wrap;align=right;verticalAlign=bottom;" connectable="0" vertex="1" parent="clVnKKF5C-X62gA4_ED_-77">
          <mxGeometry x="1" relative="1" as="geometry" />
        </mxCell>
        <mxCell id="clVnKKF5C-X62gA4_ED_-79" value="" style="endArrow=none;html=1;rounded=0;exitX=0.5;exitY=1;exitDx=0;exitDy=0;entryX=0.867;entryY=0.008;entryDx=0;entryDy=0;entryPerimeter=0;" edge="1" parent="1" source="clVnKKF5C-X62gA4_ED_-76" target="9tpbVCxZHUeH7UBsNVS_-1">
          <mxGeometry relative="1" as="geometry">
            <mxPoint x="-880" y="940" as="sourcePoint" />
            <mxPoint x="-720" y="940" as="targetPoint" />
            <Array as="points">
              <mxPoint x="-930" y="990" />
            </Array>
          </mxGeometry>
        </mxCell>
        <mxCell id="clVnKKF5C-X62gA4_ED_-80" value="N" style="resizable=0;html=1;whiteSpace=wrap;align=right;verticalAlign=bottom;" connectable="0" vertex="1" parent="clVnKKF5C-X62gA4_ED_-79">
          <mxGeometry x="1" relative="1" as="geometry" />
        </mxCell>
      </root>
    </mxGraphModel>
  </diagram>
</mxfile>
